  0
SECTION
  2
HEADER
  9
$ACADVER
  1
AC1018
  9
$ACADMAINTVER
 70
     0
  9
$DWGCODEPAGE
  3
ANSI_1252
  9
$LASTSAVEDBY
  1
fabrizio
  9
$INSBASE
 10
0.0
 20
0.0
 30
0.0
  9
$EXTMIN
 10
-40.48668381178504
 20
-450.0582724559822
 30
-0.000313166008155
  9
$EXTMAX
 10
1200.080841563071
 20
450.0350527470345
 30
0.0002988806108881
  9
$LIMMIN
 10
0.0
 20
0.0
  9
$LIMMAX
 10
420.0
 20
297.0
  9
$ORTHOMODE
 70
     1
  9
$REGENMODE
 70
     1
  9
$FILLMODE
 70
     1
  9
$QTEXTMODE
 70
     0
  9
$MIRRTEXT
 70
     0
  9
$LTSCALE
 40
1.0
  9
$ATTMODE
 70
     1
  9
$TEXTSIZE
 40
2.5
  9
$TRACEWID
 40
1.0
  9
$TEXTSTYLE
  7
Standard
  9
$CLAYER
  8
0
  9
$CELTYPE
  6
ByLayer
  9
$CECOLOR
 62
   256
  9
$CELTSCALE
 40
1.0
  9
$DISPSILH
 70
     0
  9
$DIMSCALE
 40
1.0
  9
$DIMASZ
 40
2.5
  9
$DIMEXO
 40
0.625
  9
$DIMDLI
 40
3.75
  9
$DIMRND
 40
0.0
  9
$DIMDLE
 40
0.0
  9
$DIMEXE
 40
1.25
  9
$DIMTP
 40
0.0
  9
$DIMTM
 40
0.0
  9
$DIMTXT
 40
2.5
  9
$DIMCEN
 40
2.5
  9
$DIMTSZ
 40
0.0
  9
$DIMTOL
 70
     0
  9
$DIMLIM
 70
     0
  9
$DIMTIH
 70
     0
  9
$DIMTOH
 70
     0
  9
$DIMSE1
 70
     0
  9
$DIMSE2
 70
     0
  9
$DIMTAD
 70
     1
  9
$DIMZIN
 70
     8
  9
$DIMBLK
  1

  9
$DIMASO
 70
     1
  9
$DIMSHO
 70
     1
  9
$DIMPOST
  1

  9
$DIMAPOST
  1

  9
$DIMALT
 70
     0
  9
$DIMALTD
 70
     3
  9
$DIMALTF
 40
0.03937007874016
  9
$DIMLFAC
 40
1.0
  9
$DIMTOFL
 70
     1
  9
$DIMTVP
 40
0.0
  9
$DIMTIX
 70
     0
  9
$DIMSOXD
 70
     0
  9
$DIMSAH
 70
     0
  9
$DIMBLK1
  1

  9
$DIMBLK2
  1

  9
$DIMSTYLE
  2
ISO-25
  9
$DIMCLRD
 70
     0
  9
$DIMCLRE
 70
     0
  9
$DIMCLRT
 70
     0
  9
$DIMTFAC
 40
1.0
  9
$DIMGAP
 40
0.625
  9
$DIMJUST
 70
     0
  9
$DIMSD1
 70
     0
  9
$DIMSD2
 70
     0
  9
$DIMTOLJ
 70
     0
  9
$DIMTZIN
 70
     8
  9
$DIMALTZ
 70
     0
  9
$DIMALTTZ
 70
     0
  9
$DIMUPT
 70
     0
  9
$DIMDEC
 70
     2
  9
$DIMTDEC
 70
     2
  9
$DIMALTU
 70
     2
  9
$DIMALTTD
 70
     3
  9
$DIMTXSTY
  7
Standard
  9
$DIMAUNIT
 70
     0
  9
$DIMADEC
 70
     0
  9
$DIMALTRND
 40
0.0
  9
$DIMAZIN
 70
     0
  9
$DIMDSEP
 70
    44
  9
$DIMATFIT
 70
     3
  9
$DIMFRAC
 70
     0
  9
$DIMLDRBLK
  1

  9
$DIMLUNIT
 70
     2
  9
$DIMLWD
 70
    -2
  9
$DIMLWE
 70
    -2
  9
$DIMTMOVE
 70
     0
  9
$LUNITS
 70
     2
  9
$LUPREC
 70
     3
  9
$SKETCHINC
 40
1.0
  9
$FILLETRAD
 40
1.0
  9
$AUNITS
 70
     0
  9
$AUPREC
 70
     0
  9
$MENU
  1
.
  9
$ELEVATION
 40
0.0
  9
$PELEVATION
 40
0.0
  9
$THICKNESS
 40
0.0
  9
$LIMCHECK
 70
     0
  9
$CHAMFERA
 40
10.0
  9
$CHAMFERB
 40
10.0
  9
$CHAMFERC
 40
20.0
  9
$CHAMFERD
 40
0.0
  9
$SKPOLY
 70
     0
  9
$TDCREATE
 40
2455022.720692848
  9
$TDUCREATE
 40
2455022.637359514
  9
$TDUPDATE
 40
2457489.864985533
  9
$TDUUPDATE
 40
2457489.781652199
  9
$TDINDWG
 40
0.1332867245
  9
$TDUSRTIMER
 40
2457489.736493426
  9
$USRTIMER
 70
     1
  9
$ANGBASE
 50
0.0
  9
$ANGDIR
 70
     0
  9
$PDMODE
 70
     0
  9
$PDSIZE
 40
0.0
  9
$PLINEWID
 40
0.0
  9
$SPLFRAME
 70
     0
  9
$SPLINETYPE
 70
     6
  9
$SPLINESEGS
 70
     8
  9
$HANDSEED
  5
D00
  9
$SURFTAB1
 70
     6
  9
$SURFTAB2
 70
     6
  9
$SURFTYPE
 70
     6
  9
$SURFU
 70
     6
  9
$SURFV
 70
     6
  9
$UCSBASE
  2

  9
$UCSNAME
  2

  9
$UCSORG
 10
0.0
 20
0.0
 30
0.0
  9
$UCSXDIR
 10
1.0
 20
0.0
 30
0.0
  9
$UCSYDIR
 10
0.0
 20
1.0
 30
0.0
  9
$UCSORTHOREF
  2

  9
$UCSORTHOVIEW
 70
     1
  9
$UCSORGTOP
 10
0.0
 20
0.0
 30
0.0
  9
$UCSORGBOTTOM
 10
0.0
 20
0.0
 30
0.0
  9
$UCSORGLEFT
 10
0.0
 20
0.0
 30
0.0
  9
$UCSORGRIGHT
 10
0.0
 20
0.0
 30
0.0
  9
$UCSORGFRONT
 10
0.0
 20
0.0
 30
0.0
  9
$UCSORGBACK
 10
0.0
 20
0.0
 30
0.0
  9
$PUCSBASE
  2

  9
$PUCSNAME
  2

  9
$PUCSORG
 10
0.0
 20
0.0
 30
0.0
  9
$PUCSXDIR
 10
1.0
 20
0.0
 30
0.0
  9
$PUCSYDIR
 10
0.0
 20
1.0
 30
0.0
  9
$PUCSORTHOREF
  2

  9
$PUCSORTHOVIEW
 70
     0
  9
$PUCSORGTOP
 10
0.0
 20
0.0
 30
0.0
  9
$PUCSORGBOTTOM
 10
0.0
 20
0.0
 30
0.0
  9
$PUCSORGLEFT
 10
0.0
 20
0.0
 30
0.0
  9
$PUCSORGRIGHT
 10
0.0
 20
0.0
 30
0.0
  9
$PUCSORGFRONT
 10
0.0
 20
0.0
 30
0.0
  9
$PUCSORGBACK
 10
0.0
 20
0.0
 30
0.0
  9
$USERI1
 70
     0
  9
$USERI2
 70
     0
  9
$USERI3
 70
     0
  9
$USERI4
 70
     0
  9
$USERI5
 70
     0
  9
$USERR1
 40
0.0
  9
$USERR2
 40
0.0
  9
$USERR3
 40
0.0
  9
$USERR4
 40
0.0
  9
$USERR5
 40
0.0
  9
$WORLDVIEW
 70
     1
  9
$SHADEDGE
 70
     3
  9
$SHADEDIF
 70
    70
  9
$TILEMODE
 70
     1
  9
$MAXACTVP
 70
    64
  9
$PINSBASE
 10
0.0
 20
0.0
 30
0.0
  9
$PLIMCHECK
 70
     0
  9
$PEXTMIN
 10
1.000000000000000E+20
 20
1.000000000000000E+20
 30
1.000000000000000E+20
  9
$PEXTMAX
 10
-1.000000000000000E+20
 20
-1.000000000000000E+20
 30
-1.000000000000000E+20
  9
$PLIMMIN
 10
0.0
 20
0.0
  9
$PLIMMAX
 10
420.0
 20
297.0
  9
$UNITMODE
 70
     0
  9
$VISRETAIN
 70
     1
  9
$PLINEGEN
 70
     0
  9
$PSLTSCALE
 70
     1
  9
$TREEDEPTH
 70
  3020
  9
$CMLSTYLE
  2
Standard
  9
$CMLJUST
 70
     0
  9
$CMLSCALE
 40
20.0
  9
$PROXYGRAPHICS
 70
     1
  9
$MEASUREMENT
 70
     1
  9
$CELWEIGHT
370
    -1
  9
$ENDCAPS
280
     0
  9
$JOINSTYLE
280
     0
  9
$LWDISPLAY
290
     0
  9
$INSUNITS
 70
     4
  9
$HYPERLINKBASE
  1

  9
$STYLESHEET
  1

  9
$XEDIT
290
     1
  9
$CEPSNTYPE
380
     0
  9
$PSTYLEMODE
290
     1
  9
$FINGERPRINTGUID
  2
{EC6BB858-51AA-46EC-B484-6C9CC7AB3E2E}
  9
$VERSIONGUID
  2
{96E44832-B8F0-4C5A-BA43-951ECDE5A496}
  9
$EXTNAMES
290
     1
  9
$PSVPSCALE
 40
0.0
  9
$OLESTARTUP
290
     0
  9
$SORTENTS
280
   127
  9
$INDEXCTL
280
     0
  9
$HIDETEXT
280
     1
  9
$XCLIPFRAME
290
     0
  9
$HALOGAP
280
     0
  9
$OBSCOLOR
 70
   257
  9
$OBSLTYPE
280
     0
  9
$INTERSECTIONDISPLAY
280
     0
  9
$INTERSECTIONCOLOR
 70
   257
  9
$DIMASSOC
280
     2
  9
$PROJECTNAME
  1

  0
ENDSEC
  0
SECTION
  2
CLASSES
  0
CLASS
  1
ACDBDICTIONARYWDFLT
  2
AcDbDictionaryWithDefault
  3
ObjectDBX Classes
 90
        0
 91
        1
280
     0
281
     0
  0
CLASS
  1
VISUALSTYLE
  2
AcDbVisualStyle
  3
ObjectDBX Classes
 90
     4095
 91
        0
280
     0
281
     0
  0
CLASS
  1
TABLESTYLE
  2
AcDbTableStyle
  3
ObjectDBX Classes
 90
     4095
 91
        1
280
     0
281
     0
  0
CLASS
  1
DICTIONARYVAR
  2
AcDbDictionaryVar
  3
ObjectDBX Classes
 90
        0
 91
        5
280
     0
281
     0
  0
CLASS
  1
SCALE
  2
AcDbScale
  3
ObjectDBX Classes
 90
     1153
 91
       33
280
     0
281
     0
  0
CLASS
  1
CELLSTYLEMAP
  2
AcDbCellStyleMap
  3
ObjectDBX Classes
 90
     1152
 91
        1
280
     0
281
     0
  0
CLASS
  1
RASTERVARIABLES
  2
AcDbRasterVariables
  3
ISM
 90
        0
 91
        1
280
     0
281
     0
  0
CLASS
  1
MATERIAL
  2
AcDbMaterial
  3
ObjectDBX Classes
 90
        0
 91
        3
280
     0
281
     0
  0
CLASS
  1
SUN
  2
AcDbSun
  3
SCENEOE
 90
     1153
 91
        0
280
     0
281
     0
  0
CLASS
  1
MLEADERSTYLE
  2
AcDbMLeaderStyle
  3
ACDB_MLEADERSTYLE_CLASS
 90
     4095
 91
        1
280
     0
281
     0
  0
CLASS
  1
DIMASSOC
  2
AcDbDimAssoc
  3
"AcDbDimAssoc|Product Desc:     AcDim ARX App For Dimension|Company:          Autodesk, Inc.|WEB Address:      www.autodesk.com"
 90
        0
 91
       13
280
     0
281
     0
  0
CLASS
  1
SORTENTSTABLE
  2
AcDbSortentsTable
  3
ObjectDBX Classes
 90
        0
 91
        1
280
     0
281
     0
  0
ENDSEC
  0
SECTION
  2
TABLES
  0
TABLE
  2
VPORT
  5
8
330
0
100
AcDbSymbolTable
 70
    11
  0
VPORT
  5
CFF
330
8
100
AcDbSymbolTableRecord
100
AcDbViewportTableRecord
  2
*Active
 70
     0
 10
0.0
 20
0.0
 11
1.0
 21
1.0
 12
942.3128365171422
 22
154.0966076456736
 13
0.0
 23
0.0
 14
10.0
 24
10.0
 15
10.0
 25
10.0
 16
0.0
 26
0.0
 36
1.0
 17
-362.5157576414991
 27
-154.1082175001474
 37
120.1194208376957
 40
906.8104395702034
 41
2.23038605230386
 42
50.0
 43
0.0
 44
0.0
 50
0.0
 51
0.0
 71
     0
 72
  1000
 73
     1
 74
     3
 75
     0
 76
     0
 77
     0
 78
     0
281
     0
 65
     1
110
0.0
120
0.0
130
0.0
111
1.0
121
0.0
131
0.0
112
0.0
122
1.0
132
0.0
 79
     1
146
0.0
  0
ENDTAB
  0
TABLE
  2
LTYPE
  5
5
330
0
100
AcDbSymbolTable
 70
     1
  0
LTYPE
  5
14
330
5
100
AcDbSymbolTableRecord
100
AcDbLinetypeTableRecord
  2
ByBlock
 70
     0
  3

 72
    65
 73
     0
 40
0.0
  0
LTYPE
  5
15
330
5
100
AcDbSymbolTableRecord
100
AcDbLinetypeTableRecord
  2
ByLayer
 70
     0
  3

 72
    65
 73
     0
 40
0.0
  0
LTYPE
  5
16
330
5
100
AcDbSymbolTableRecord
100
AcDbLinetypeTableRecord
  2
Continuous
 70
     0
  3
Solid line
 72
    65
 73
     0
 40
0.0
  0
ENDTAB
  0
TABLE
  2
LAYER
  5
2
102
{ACAD_XDICTIONARY
360
813
102
}
330
0
100
AcDbSymbolTable
 70
    13
  0
LAYER
  5
10
330
2
100
AcDbSymbolTableRecord
100
AcDbLayerTableRecord
  2
0
 70
     0
 62
     7
  6
Continuous
370
    -3
390
F
  0
LAYER
  5
B9
330
2
100
AcDbSymbolTableRecord
100
AcDbLayerTableRecord
  2
VISIBLE
 70
     0
 62
     7
  6
Continuous
370
    -3
390
F
  0
LAYER
  5
46E
330
2
100
AcDbSymbolTableRecord
100
AcDbLayerTableRecord
  2
quote
 70
     0
 62
     1
  6
Continuous
370
    -3
390
F
  0
LAYER
  5
46F
330
2
100
AcDbSymbolTableRecord
100
AcDbLayerTableRecord
  2
Costruzione
 70
     0
 62
     6
  6
Continuous
370
    -3
390
F
  0
LAYER
  5
470
330
2
100
AcDbSymbolTableRecord
100
AcDbLayerTableRecord
  2
check
 70
     0
 62
     3
  6
Continuous
370
    -3
390
F
  0
LAYER
  5
49E
330
2
100
AcDbSymbolTableRecord
100
AcDbLayerTableRecord
  2
Defpoints
 70
     0
 62
     7
  6
Continuous
290
     0
370
    -3
390
F
  0
LAYER
  5
756
330
2
100
AcDbSymbolTableRecord
100
AcDbLayerTableRecord
  2
text
 70
     0
 62
     7
  6
Continuous
370
    -3
390
F
  0
LAYER
  5
804
102
{ACAD_XDICTIONARY
360
805
102
}
330
2
100
AcDbSymbolTableRecord
100
AcDbLayerTableRecord
  2
0 Struttura Wood
 70
     0
 62
    30
  6
Continuous
370
    -3
390
F
1001
AcAecLayerStandard
1000

1000

  0
LAYER
  5
807
102
{ACAD_XDICTIONARY
360
808
102
}
330
2
100
AcDbSymbolTableRecord
100
AcDbLayerTableRecord
  2
0 Motori
 70
     0
 62
     1
  6
Continuous
370
    -3
390
F
1001
AcAecLayerStandard
1000

1000

  0
LAYER
  5
80A
102
{ACAD_XDICTIONARY
360
80B
102
}
330
2
100
AcDbSymbolTableRecord
100
AcDbLayerTableRecord
  2
0 Tasche
 70
     0
 62
     3
  6
Continuous
370
    -3
390
F
  0
LAYER
  5
80D
102
{ACAD_XDICTIONARY
360
80E
102
}
330
2
100
AcDbSymbolTableRecord
100
AcDbLayerTableRecord
  2
0 Fori tasche
 70
     0
 62
    10
  6
Continuous
370
    -3
390
F
  0
LAYER
  5
810
330
2
100
AcDbSymbolTableRecord
100
AcDbLayerTableRecord
  2
0 Fori motori
 70
     0
 62
     1
  6
Continuous
370
    -3
390
F
  0
LAYER
  5
8E4
330
2
100
AcDbSymbolTableRecord
100
AcDbLayerTableRecord
  2
tags
 70
     0
 62
     6
  6
Continuous
370
    -3
390
F
  0
ENDTAB
  0
TABLE
  2
STYLE
  5
3
330
0
100
AcDbSymbolTable
 70
     1
  0
STYLE
  5
11
330
3
100
AcDbSymbolTableRecord
100
AcDbTextStyleTableRecord
  2
Standard
 70
     0
 40
0.0
 41
1.0
 50
0.0
 71
     0
 42
2.5
  3
ARIAL.TTF
  4

1001
ACAD
1000
Arial
1071
        0
  0
ENDTAB
  0
TABLE
  2
VIEW
  5
6
330
0
100
AcDbSymbolTable
 70
     0
  0
ENDTAB
  0
TABLE
  2
UCS
  5
7
330
0
100
AcDbSymbolTable
 70
     0
  0
ENDTAB
  0
TABLE
  2
APPID
  5
9
330
0
100
AcDbSymbolTable
 70
     4
  0
APPID
  5
12
330
9
100
AcDbSymbolTableRecord
100
AcDbRegAppTableRecord
  2
ACAD
 70
     0
  0
APPID
  5
467
330
9
100
AcDbSymbolTableRecord
100
AcDbRegAppTableRecord
  2
ACAD_MLEADERVER
 70
     0
  0
APPID
  5
811
330
9
100
AcDbSymbolTableRecord
100
AcDbRegAppTableRecord
  2
ACAD_PSEXT
 70
     0
  0
APPID
  5
812
330
9
100
AcDbSymbolTableRecord
100
AcDbRegAppTableRecord
  2
AcAecLayerStandard
 70
     0
  0
ENDTAB
  0
TABLE
  2
DIMSTYLE
  5
A
330
0
100
AcDbSymbolTable
 70
     2
100
AcDbDimStyleTable
 71
     1
340
27
  0
DIMSTYLE
105
27
330
A
100
AcDbSymbolTableRecord
100
AcDbDimStyleTableRecord
  2
ISO-25
 70
     0
 41
2.5
 42
0.625
 43
3.75
 44
1.25
 73
     0
 74
     0
 77
     1
 78
     8
140
2.5
141
2.5
143
0.03937007874016
147
0.625
171
     3
172
     1
271
     2
272
     2
274
     3
278
    44
283
     0
284
     8
340
11
  0
DIMSTYLE
105
BB
330
A
100
AcDbSymbolTableRecord
100
AcDbDimStyleTableRecord
  2
STANDARD
 70
     0
340
11
  0
ENDTAB
  0
TABLE
  2
BLOCK_RECORD
  5
1
330
0
100
AcDbSymbolTable
 70
    40
  0
BLOCK_RECORD
  5
1F
102
{ACAD_XDICTIONARY
360
5D7
102
}
330
1
100
AcDbSymbolTableRecord
100
AcDbBlockTableRecord
  2
*Model_Space
340
22
  0
BLOCK_RECORD
  5
1B
330
1
100
AcDbSymbolTableRecord
100
AcDbBlockTableRecord
  2
*Paper_Space
340
1E
  0
BLOCK_RECORD
  5
23
330
1
100
AcDbSymbolTableRecord
100
AcDbBlockTableRecord
  2
*Paper_Space0
340
26
  0
BLOCK_RECORD
  5
759
330
1
100
AcDbSymbolTableRecord
100
AcDbBlockTableRecord
  2
*D13
340
0
  0
BLOCK_RECORD
  5
771
330
1
100
AcDbSymbolTableRecord
100
AcDbBlockTableRecord
  2
*D14
340
0
  0
BLOCK_RECORD
  5
789
330
1
100
AcDbSymbolTableRecord
100
AcDbBlockTableRecord
  2
*D15
340
0
  0
BLOCK_RECORD
  5
7A1
330
1
100
AcDbSymbolTableRecord
100
AcDbBlockTableRecord
  2
*D16
340
0
  0
BLOCK_RECORD
  5
ACA
330
1
100
AcDbSymbolTableRecord
100
AcDbBlockTableRecord
  2
zcarriage
340
0
310
2800000020000000200000000100080000000000000400000000000000000000000000000000000000000000000080000080000000808000800000008000800080800000C0C0C000C0DCC000F0CAA6000020400000206000002080000020A0000020C0000020E00000400000004020000040400000406000004080000040A0
310
000040C0000040E00000600000006020000060400000606000006080000060A0000060C0000060E00000800000008020000080400000806000008080000080A0000080C0000080E00000A0000000A0200000A0400000A0600000A0800000A0A00000A0C00000A0E00000C0000000C0200000C0400000C0600000C0800000C0
310
A00000C0C00000C0E00000E0000000E0200000E0400000E0600000E0800000E0A00000E0C00000E0E00040000000400020004000400040006000400080004000A0004000C0004000E00040200000402020004020400040206000402080004020A0004020C0004020E000404000004040200040404000404060004040800040
310
40A0004040C0004040E00040600000406020004060400040606000406080004060A0004060C0004060E00040800000408020004080400040806000408080004080A0004080C0004080E00040A0000040A0200040A0400040A0600040A0800040A0A00040A0C00040A0E00040C0000040C0200040C0400040C0600040C08000
310
40C0A00040C0C00040C0E00040E0000040E0200040E0400040E0600040E0800040E0A00040E0C00040E0E00080000000800020008000400080006000800080008000A0008000C0008000E00080200000802020008020400080206000802080008020A0008020C0008020E00080400000804020008040400080406000804080
310
008040A0008040C0008040E00080600000806020008060400080606000806080008060A0008060C0008060E00080800000808020008080400080806000808080008080A0008080C0008080E00080A0000080A0200080A0400080A0600080A0800080A0A00080A0C00080A0E00080C0000080C0200080C0400080C0600080C0
310
800080C0A00080C0C00080C0E00080E0000080E0200080E0400080E0600080E0800080E0A00080E0C00080E0E000C0000000C0002000C0004000C0006000C0008000C000A000C000C000C000E000C0200000C0202000C0204000C0206000C0208000C020A000C020C000C020E000C0400000C0402000C0404000C0406000C0
310
408000C040A000C040C000C040E000C0600000C0602000C0604000C0606000C0608000C060A000C060C000C060E000C0800000C0802000C0804000C0806000C0808000C080A000C080C000C080E000C0A00000C0A02000C0A04000C0A06000C0A08000C0A0A000C0A0C000C0A0E000C0C00000C0C02000C0C04000C0C06000
310
C0C08000C0C0A000F0FBFF00A4A0A000808080000000FF0000FF000000FFFF00FF000000FF00FF00FFFF0000FFFFFF00A4A4A4A4A4A4A4A4A4A4A4A4A4A4A4A4A4A4A4A4A4A4A4A4A4A4A4A4A4A4A4A4A4A4A4A4A4A4A4A4F9F9F9F9F9F9F9F9F9F9F9F9F9F9F9F9A4A4A4A4A4A4A4A4A4A4A4A4A4A4A4A4F9A4A4A4A4A4A4
310
A4A4A4A4A4A4A4A4F9A4A4A4A4A4A4A4A4A4A4A4A4A4A4A4A4F9F9A4A4A4A4A4A4A4A4A4A4A4A4F9F9A4A4A4A4A4A4A4A4A4A4A4A4A4A4A4A4F9F9F9F9A4A4A4A4A4A4A4A4F9F9F9F9A4A4A4A4A4A4A4A4A4A4A4A4A4A4A4A4F9F9F9F9A4A4A4A4A4A4A4A4F9F9F9F9A4A4A4A4A4A4A4A4A4A4A4A4A4A4A4A4F9A4A4A4A4A4
310
A4A4A4A4A4A4A4A4A4F9A4A4A4A4A4A4A4A4A4A4A4A4A4A4A4A4F9F9A4A4A4A4F9FFFFF9A4A4A4A4F9F9A4A4A4A4A4A4A4A4A4A4A4A4A4A4A4A4F9A4A4A4A4A4F9FFA4F9A4A4A4A4A4F9A4A4A4A4A4A4A4A4A4A4A4A4A4A4A4A4F9A4A4A4A4A4A4FFA4A4A4A4A4A4A4F9A4A4A4A4A4A4A4A4A4A4A4A4A4A4A4A4F9A4A4A4A4
310
A4A4A4FFA4A4A4A4A4A4F9A4A4A4A4A4A4A4A4A4A4A4A4A4A4A4A4F9A4A4A4A4A4A4A4FFA4A4A4A4A4A4F9A4A4A4A4A4A4A4A4A4A4A4A4A4A4A4A4F9A4A4A4A4A4A4A4A4FFA4A4A4A4A4F9A4A4A4A4A4A4A4A4A4A4A4A4A4A4A4A4F9A4A4A4A4A4F9FFFFF9A4A4A4A4A4F9A4A4A4A4A4A4A4A4A4A4A4A4A4A4A4A4F9A4A4A4
310
A4A4F9A4A4F9A4A4A4A4A4F9A4A4A4A4A4A4A4A4A4A4A4A4A4A4A4A4F9A4A4A4A4A4A4A4A4A4A4F9A4A4F9F9A4A4A4A4A4A4A4A4A4A4A4A4A4A4A4A4F9F9F9F9F9A4A4A4A4A4A4F9F9F9F9F9A4A4A4A4A4A4A4A4A4A4A4A4A4A4A4A4F9F9F9A4F9F9A4A4A4A4A4A4A4A4A4F9A4A4A4A4A4A4A4A4A4A4A4A4A4A4A4A4F9A4A4
310
A4A4A4A4A4A4A4A4A4A4A4A4F9A4A4A4A4A4A4A4A4A4A4A4A4A4A4A4A4F9A4A4A4A4A4A4A4A4A4A4A4A4A4A4F9A4A4A4A4A4A4A4A4A4A4A4A4A4A4A4A4F9A4A4A4A4A4A4A4A4A4A4A4A4A4A4F9A4A4A4A4A4A4A4A4A4A4A4A4A4A4A4A4F9A4A4A4A4A4A4A4A4A4A4A4A4A4A4F9A4A4A4A4A4A4A4A4A4A4A4A4A4A4A4A4F9A4
310
A4A4A4A4A4A4A4A4A4A4A4A4A4F9A4A4A4A4A4A4A4A4A4A4A4A4A4A4A4A4F9A4A4A4A4A4A4A4A4A4A4A4A4A4A4F9A4A4A4A4A4A4A4A4A4A4A4A4A4A4A4A4F9A4A4A4A4A4A4A4A4A4A4A4A4A4A4F9A4A4A4A4A4A4A4A4A4A4A4A4A4A4A4A4F9A4A4A4A4A4A4A4A4A4A4A4A4A4A4F9A4A4A4A4A4A4A4A4A4A4A4A4A4A4A4A4F9
310
A4A4A4A4A4A4A4A4A4A4A4A4A4A4F9A4A4A4A4A4A4A4A4A4A4A4A4A4A4A4A4F9A4A4A4A4A4A4A4A4A4A4A4A4A4A4F9A4A4A4A4A4A4A4A4A4A4A4A4A4A4A4A4F9A4A4A4A4A4A4A4A4A4A4A4A4A4A4F9A4A4A4A4A4A4A4A4A4A4A4A4A4A4A4A4F9A4A4A4A4A4A4A4A4A4A4A4A4A4A4F9A4A4A4A4A4A4A4A4A4A4A4A4A4A4A4A4
310
F9F9F9F9F9F9F9F9F9F9F9F9F9F9F9F9A4A4A4A4A4A4A4A4A4A4A4A4A4A4A4A4A4A4A4A4A4A4A4A4A4A4A4A4A4A4A4A4A4A4A4A4A4A4A4A4
1001
ACAD
1000
DesignCenter Data
1002
{
1070
     1
1070
     4
1002
}
  0
BLOCK_RECORD
  5
B95
330
1
100
AcDbSymbolTableRecord
100
AcDbBlockTableRecord
  2
*D31
340
0
  0
BLOCK_RECORD
  5
BAB
330
1
100
AcDbSymbolTableRecord
100
AcDbBlockTableRecord
  2
*D32
340
0
  0
BLOCK_RECORD
  5
BC1
330
1
100
AcDbSymbolTableRecord
100
AcDbBlockTableRecord
  2
*D33
340
0
  0
BLOCK_RECORD
  5
C20
330
1
100
AcDbSymbolTableRecord
100
AcDbBlockTableRecord
  2
*D34
340
0
  0
BLOCK_RECORD
  5
C38
330
1
100
AcDbSymbolTableRecord
100
AcDbBlockTableRecord
  2
*D35
340
0
  0
BLOCK_RECORD
  5
C5B
330
1
100
AcDbSymbolTableRecord
100
AcDbBlockTableRecord
  2
*D36
340
0
  0
BLOCK_RECORD
  5
C73
330
1
100
AcDbSymbolTableRecord
100
AcDbBlockTableRecord
  2
*D37
340
0
  0
BLOCK_RECORD
  5
C9E
330
1
100
AcDbSymbolTableRecord
100
AcDbBlockTableRecord
  2
*D38
340
0
  0
BLOCK_RECORD
  5
CCB
330
1
100
AcDbSymbolTableRecord
100
AcDbBlockTableRecord
  2
*D39
340
0
  0
ENDTAB
  0
ENDSEC
  0
SECTION
  2
BLOCKS
  0
BLOCK
  5
20
330
1F
100
AcDbEntity
  8
0
100
AcDbBlockBegin
  2
*Model_Space
 70
     0
 10
0.0
 20
0.0
 30
0.0
  3
*Model_Space
  1

  0
ENDBLK
  5
21
330
1F
100
AcDbEntity
  8
0
100
AcDbBlockEnd
  0
BLOCK
  5
1C
330
1B
100
AcDbEntity
 67
     1
  8
0
100
AcDbBlockBegin
  2
*Paper_Space
 70
     0
 10
0.0
 20
0.0
 30
0.0
  3
*Paper_Space
  1

  0
ENDBLK
  5
1D
330
1B
100
AcDbEntity
 67
     1
  8
0
100
AcDbBlockEnd
  0
BLOCK
  5
24
330
23
100
AcDbEntity
  8
0
100
AcDbBlockBegin
  2
*Paper_Space0
 70
     0
 10
0.0
 20
0.0
 30
0.0
  3
*Paper_Space0
  1

  0
ENDBLK
  5
25
330
23
100
AcDbEntity
  8
0
100
AcDbBlockEnd
  0
BLOCK
  5
763
330
759
100
AcDbEntity
  8
0
100
AcDbBlockBegin
  2
*D13
 70
     1
 10
0.0
 20
0.0
 30
0.0
  3
*D13
  1

  0
LINE
  5
766
330
759
100
AcDbEntity
  8
quote
 62
     0
370
    -2
100
AcDbLine
 10
783.1213362170807
 20
-216.4209909746723
 30
0.0
 11
783.1213362170807
 21
-180.0823117093819
 31
0.0
  0
LINE
  5
767
330
759
100
AcDbEntity
  8
quote
 62
     0
370
    -2
100
AcDbLine
 10
653.1213362170806
 20
-216.4209909746723
 30
0.0
 11
653.1213362170806
 21
-180.0823117093819
 31
0.0
  0
LINE
  5
768
330
759
100
AcDbEntity
  8
quote
 62
     0
370
    -2
100
AcDbLine
 10
780.6213362170807
 20
-181.3323117093819
 30
0.0
 11
655.6213362170806
 21
-181.3323117093819
 31
0.0
  0
SOLID
  5
769
330
759
100
AcDbEntity
  8
quote
 62
     0
100
AcDbTrace
 10
780.6213362170807
 20
-180.9156450427152
 30
0.0
 11
780.6213362170807
 21
-181.7489783760485
 31
0.0
 12
783.1213362170807
 22
-181.3323117093819
 32
0.0
 13
783.1213362170807
 23
-181.3323117093819
 33
0.0
  0
SOLID
  5
76A
330
759
100
AcDbEntity
  8
quote
 62
     0
100
AcDbTrace
 10
655.6213362170806
 20
-180.9156450427152
 30
0.0
 11
655.6213362170806
 21
-181.7489783760485
 31
0.0
 12
653.1213362170806
 22
-181.3323117093819
 32
0.0
 13
653.1213362170806
 23
-181.3323117093819
 33
0.0
  0
MTEXT
  5
76B
330
759
100
AcDbEntity
  8
quote
 62
     0
100
AcDbMText
 10
718.1213362170807
 20
-179.4300265797775
 30
0.0
 40
2.5
 41
0.0
 71
     5
 72
     1
  1
130
 73
     1
 44
1.0
  0
POINT
  5
76C
330
759
100
AcDbEntity
  8
Defpoints
 62
     0
100
AcDbPoint
 10
783.1213362170807
 20
-217.0459909746723
 30
0.0
  0
POINT
  5
76D
330
759
100
AcDbEntity
  8
Defpoints
 62
     0
100
AcDbPoint
 10
653.1213362170806
 20
-217.0459909746723
 30
0.0
  0
POINT
  5
76E
330
759
100
AcDbEntity
  8
Defpoints
 62
     0
100
AcDbPoint
 10
653.1213362170806
 20
-181.3323117093819
 30
0.0
  0
ENDBLK
  5
764
330
759
100
AcDbEntity
  8
0
100
AcDbBlockEnd
  0
BLOCK
  5
77B
330
771
100
AcDbEntity
  8
0
100
AcDbBlockBegin
  2
*D14
 70
     1
 10
0.0
 20
0.0
 30
0.0
  3
*D14
  1

  0
LINE
  5
77E
330
771
100
AcDbEntity
  8
quote
 62
     0
370
    -2
100
AcDbLine
 10
652.4963362170806
 20
-217.0459909746723
 30
0.0
 11
636.2894858053818
 21
-217.0459909746723
 31
0.0
  0
LINE
  5
77F
330
771
100
AcDbEntity
  8
quote
 62
     0
370
    -2
100
AcDbLine
 10
652.4963362170806
 20
-467.0459909746723
 30
0.0
 11
636.2894858053818
 21
-467.0459909746723
 31
0.0
  0
LINE
  5
780
330
771
100
AcDbEntity
  8
quote
 62
     0
370
    -2
100
AcDbLine
 10
637.5394858053819
 20
-219.5459909746723
 30
0.0
 11
637.5394858053818
 21
-464.5459909746723
 31
0.0
  0
SOLID
  5
781
330
771
100
AcDbEntity
  8
quote
 62
     0
100
AcDbTrace
 10
637.1228191387152
 20
-219.5459909746723
 30
0.0
 11
637.9561524720485
 21
-219.5459909746723
 31
0.0
 12
637.5394858053819
 22
-217.0459909746723
 32
0.0
 13
637.5394858053819
 23
-217.0459909746723
 33
0.0
  0
SOLID
  5
782
330
771
100
AcDbEntity
  8
quote
 62
     0
100
AcDbTrace
 10
637.1228191387151
 20
-464.5459909746723
 30
0.0
 11
637.9561524720482
 21
-464.5459909746723
 31
0.0
 12
637.5394858053818
 22
-467.0459909746723
 32
0.0
 13
637.5394858053818
 23
-467.0459909746723
 33
0.0
  0
MTEXT
  5
783
330
771
100
AcDbEntity
  8
quote
 62
     0
100
AcDbMText
 10
635.6380533360776
 20
-342.0459909746722
 30
0.0
 40
2.5
 41
0.0
 71
     5
 72
     1
  1
250
 11
0.0000000000000001
 21
1.0
 31
0.0
 73
     1
 44
1.0
  0
POINT
  5
784
330
771
100
AcDbEntity
  8
Defpoints
 62
     0
100
AcDbPoint
 10
653.1213362170806
 20
-217.0459909746723
 30
0.0
  0
POINT
  5
785
330
771
100
AcDbEntity
  8
Defpoints
 62
     0
100
AcDbPoint
 10
653.1213362170806
 20
-467.0459909746723
 30
0.0
  0
POINT
  5
786
330
771
100
AcDbEntity
  8
Defpoints
 62
     0
100
AcDbPoint
 10
637.5394858053818
 20
-467.0459909746723
 30
0.0
  0
ENDBLK
  5
77C
330
771
100
AcDbEntity
  8
0
100
AcDbBlockEnd
  0
BLOCK
  5
793
330
789
100
AcDbEntity
  8
0
100
AcDbBlockBegin
  2
*D15
 70
     1
 10
0.0
 20
0.0
 30
0.0
  3
*D15
  1

  0
LINE
  5
796
330
789
100
AcDbEntity
  8
quote
 62
     0
370
    -2
100
AcDbLine
 10
274.801146771831
 20
-208.3903518184538
 30
0.0
 11
274.801146771831
 21
-161.5697585084213
 31
0.0
  0
LINE
  5
797
330
789
100
AcDbEntity
  8
quote
 62
     0
370
    -2
100
AcDbLine
 10
124.8011467718311
 20
-208.3903518184538
 30
0.0
 11
124.8011467718311
 21
-161.5697585084213
 31
0.0
  0
LINE
  5
798
330
789
100
AcDbEntity
  8
quote
 62
     0
370
    -2
100
AcDbLine
 10
272.301146771831
 20
-162.8197585084213
 30
0.0
 11
127.3011467718311
 21
-162.8197585084213
 31
0.0
  0
SOLID
  5
799
330
789
100
AcDbEntity
  8
quote
 62
     0
100
AcDbTrace
 10
272.301146771831
 20
-162.4030918417546
 30
0.0
 11
272.301146771831
 21
-163.2364251750879
 31
0.0
 12
274.801146771831
 22
-162.8197585084213
 32
0.0
 13
274.801146771831
 23
-162.8197585084213
 33
0.0
  0
SOLID
  5
79A
330
789
100
AcDbEntity
  8
quote
 62
     0
100
AcDbTrace
 10
127.3011467718311
 20
-162.4030918417546
 30
0.0
 11
127.3011467718311
 21
-163.2364251750879
 31
0.0
 12
124.8011467718311
 22
-162.8197585084213
 32
0.0
 13
124.8011467718311
 23
-162.8197585084213
 33
0.0
  0
MTEXT
  5
79B
330
789
100
AcDbEntity
  8
quote
 62
     0
100
AcDbMText
 10
199.801146771831
 20
-160.918326039117
 30
0.0
 40
2.5
 41
0.0
 71
     5
 72
     1
  1
150
 73
     1
 44
1.0
  0
POINT
  5
79C
330
789
100
AcDbEntity
  8
Defpoints
 62
     0
100
AcDbPoint
 10
274.801146771831
 20
-209.0153518184538
 30
0.0
  0
POINT
  5
79D
330
789
100
AcDbEntity
  8
Defpoints
 62
     0
100
AcDbPoint
 10
124.8011467718311
 20
-209.0153518184538
 30
0.0
  0
POINT
  5
79E
330
789
100
AcDbEntity
  8
Defpoints
 62
     0
100
AcDbPoint
 10
124.8011467718311
 20
-162.8197585084213
 30
0.0
  0
ENDBLK
  5
794
330
789
100
AcDbEntity
  8
0
100
AcDbBlockEnd
  0
BLOCK
  5
7AB
330
7A1
100
AcDbEntity
  8
0
100
AcDbBlockBegin
  2
*D16
 70
     1
 10
0.0
 20
0.0
 30
0.0
  3
*D16
  1

  0
LINE
  5
7AE
330
7A1
100
AcDbEntity
  8
quote
 62
     0
370
    -2
100
AcDbLine
 10
124.1761467718311
 20
-209.0153518184538
 30
0.0
 11
82.88492627025009
 21
-209.0153518184538
 31
0.0
  0
LINE
  5
7AF
330
7A1
100
AcDbEntity
  8
quote
 62
     0
370
    -2
100
AcDbLine
 10
124.1761467718311
 20
-509.0153518184538
 30
0.0
 11
82.88492627025002
 21
-509.0153518184538
 31
0.0
  0
LINE
  5
7B0
330
7A1
100
AcDbEntity
  8
quote
 62
     0
370
    -2
100
AcDbLine
 10
84.13492627025009
 20
-211.5153518184538
 30
0.0
 11
84.13492627025002
 21
-506.5153518184538
 31
0.0
  0
SOLID
  5
7B1
330
7A1
100
AcDbEntity
  8
quote
 62
     0
100
AcDbTrace
 10
83.71825960358341
 20
-211.5153518184538
 30
0.0
 11
84.55159293691677
 21
-211.5153518184538
 31
0.0
 12
84.13492627025009
 22
-209.0153518184538
 32
0.0
 13
84.13492627025009
 23
-209.0153518184538
 33
0.0
  0
SOLID
  5
7B2
330
7A1
100
AcDbEntity
  8
quote
 62
     0
100
AcDbTrace
 10
83.71825960358334
 20
-506.5153518184538
 30
0.0
 11
84.5515929369167
 21
-506.5153518184538
 31
0.0
 12
84.13492627025002
 22
-509.0153518184538
 32
0.0
 13
84.13492627025002
 23
-509.0153518184538
 33
0.0
  0
MTEXT
  5
7B3
330
7A1
100
AcDbEntity
  8
quote
 62
     0
100
AcDbMText
 10
82.23264114064575
 20
-359.0153518184538
 30
0.0
 40
2.5
 41
0.0
 71
     5
 72
     1
  1
300
 11
0.0000000000000001
 21
1.0
 31
0.0
 73
     1
 44
1.0
  0
POINT
  5
7B4
330
7A1
100
AcDbEntity
  8
Defpoints
 62
     0
100
AcDbPoint
 10
124.8011467718311
 20
-209.0153518184538
 30
0.0
  0
POINT
  5
7B5
330
7A1
100
AcDbEntity
  8
Defpoints
 62
     0
100
AcDbPoint
 10
124.8011467718311
 20
-509.0153518184538
 30
0.0
  0
POINT
  5
7B6
330
7A1
100
AcDbEntity
  8
Defpoints
 62
     0
100
AcDbPoint
 10
84.13492627025002
 20
-509.0153518184538
 30
0.0
  0
ENDBLK
  5
7AC
330
7A1
100
AcDbEntity
  8
0
100
AcDbBlockEnd
  0
BLOCK
  5
ACB
330
ACA
100
AcDbEntity
  8
0
100
AcDbBlockBegin
  2
zcarriage
 70
     0
 10
0.0
 20
0.0
 30
0.0
  3
zcarriage
  1

  0
LWPOLYLINE
  5
ACD
330
ACA
100
AcDbEntity
  8
Costruzione
 62
     1
100
AcDbPolyline
 90
        4
 70
     1
 43
0.0
 10
38.99999999999997
 20
33.5
 10
58.99999999999997
 20
33.5
 42
-1.0
 10
58.99999999999997
 20
26.5
 10
38.99999999999997
 20
26.5
 42
-1.0
  0
LWPOLYLINE
  5
ACE
330
ACA
100
AcDbEntity
  8
Costruzione
 62
     1
100
AcDbPolyline
 90
        4
 70
     1
 43
0.0
 10
-59.0
 20
33.50000000000012
 10
-39.0
 20
33.50000000000012
 42
-1.0
 10
-39.0
 20
26.50000000000023
 10
-59.0
 20
26.50000000000023
 42
-1.0
  0
LWPOLYLINE
  5
ACF
330
ACA
100
AcDbEntity
  8
Costruzione
 62
     1
100
AcDbPolyline
 90
        4
 70
     1
 43
0.0
 10
34.99999999999997
 20
133.5000000000001
 10
54.99999999999997
 20
133.5000000000001
 42
-1.0
 10
54.99999999999997
 20
126.5000000000001
 10
34.99999999999997
 20
126.5000000000001
 42
-1.0
  0
LWPOLYLINE
  5
AD0
330
ACA
100
AcDbEntity
  8
Costruzione
 62
     1
100
AcDbPolyline
 90
        4
 70
     1
 43
0.0
 10
-55.0
 20
133.5000000000001
 10
-35.00000000000011
 20
133.5000000000001
 42
-1.0
 10
-35.00000000000011
 20
126.5000000000001
 10
-55.0
 20
126.5000000000001
 42
-1.0
  0
LWPOLYLINE
  5
AD1
330
ACA
100
AcDbEntity
  8
Costruzione
 62
     1
100
AcDbPolyline
 90
        4
 70
     1
 43
0.0
 10
-65.0
 20
0.0
 10
-65.0
 20
250.0
 10
64.99999999999997
 20
250.0
 10
64.99999999999997
 20
0.0
  0
CIRCLE
  5
AD2
330
ACA
100
AcDbEntity
  8
Costruzione
 62
     1
100
AcDbCircle
 10
-60.00000000000011
 20
12.00000000000011
 30
0.0
 40
2.0
  0
CIRCLE
  5
AD3
330
ACA
100
AcDbEntity
  8
Costruzione
 62
     1
100
AcDbCircle
 10
60.00000000000011
 20
48.00000000000011
 30
0.0
 40
2.0
210
0.0
220
0.0
230
-1.0
  0
CIRCLE
  5
AD4
330
ACA
100
AcDbEntity
  8
Costruzione
 62
     1
100
AcDbCircle
 10
-55.0
 20
140.0
 30
0.0
 40
2.0
  0
CIRCLE
  5
AD5
330
ACA
100
AcDbEntity
  8
Costruzione
 62
     1
100
AcDbCircle
 10
-12.50000000000011
 20
106.0000000000002
 30
0.0
 40
2.0
  0
CIRCLE
  5
AD6
330
ACA
100
AcDbEntity
  8
Costruzione
 62
     1
100
AcDbCircle
 10
12.50000000000011
 20
54.00000000000011
 30
0.0
 40
2.0
210
0.0
220
0.0
230
-1.0
  0
CIRCLE
  5
AD7
330
ACA
100
AcDbEntity
  8
Costruzione
 62
     1
100
AcDbCircle
 10
-12.5
 20
106.0000000000001
 30
0.0
 40
2.0
210
0.0
220
0.0
230
-1.0
  0
CIRCLE
  5
AD8
330
ACA
100
AcDbEntity
  8
Costruzione
 62
     1
100
AcDbCircle
 10
-59.99999999999997
 20
12.0
 30
0.0
 40
2.0
210
0.0
220
0.0
230
-1.0
  0
CIRCLE
  5
AD9
330
ACA
100
AcDbEntity
  8
Costruzione
 62
     1
100
AcDbCircle
 10
59.99999999999997
 20
48.00000000000011
 30
0.0
 40
2.0
  0
CIRCLE
  5
ADA
330
ACA
100
AcDbEntity
  8
Costruzione
 62
     1
100
AcDbCircle
 10
27.99999999999997
 20
120.0
 30
0.0
 40
2.0
  0
CIRCLE
  5
ADB
330
ACA
100
AcDbEntity
  8
Costruzione
 62
     1
100
AcDbCircle
 10
12.5
 20
54.00000000000011
 30
0.0
 40
2.0
  0
CIRCLE
  5
ADC
330
ACA
100
AcDbEntity
  8
Costruzione
 62
     1
100
AcDbCircle
 10
-28.0
 20
140.0
 30
0.0
 40
2.0
  0
CIRCLE
  5
ADD
330
ACA
100
AcDbEntity
  8
Costruzione
 62
     1
100
AcDbCircle
 10
54.99999999999997
 20
120.0
 30
0.0
 40
2.0
  0
LWPOLYLINE
  5
ADE
330
ACA
100
AcDbEntity
  8
0
100
AcDbPolyline
 90
        4
 70
     0
 43
0.0
 10
-12.50000000000011
 20
106.0000000000002
 10
12.5
 20
106.0000000000001
 10
-12.50000000000011
 20
54.00000000000011
 10
12.5
 20
54.00000000000011
  0
ENDBLK
  5
ACC
330
ACA
100
AcDbEntity
  8
0
100
AcDbBlockEnd
  0
BLOCK
  5
B9E
330
B95
100
AcDbEntity
  8
0
100
AcDbBlockBegin
  2
*D31
 70
     1
 10
0.0
 20
0.0
 30
0.0
  3
*D31
  1

  0
LINE
  5
CC1
330
B95
100
AcDbEntity
  8
0
 62
     0
370
    -2
100
AcDbLine
 10
196.5780408147957
 20
20.58783682818969
 30
0.0
 11
178.7664339746978
 21
36.62955737790691
 31
0.0
  0
LINE
  5
CC2
330
B95
100
AcDbEntity
  8
0
 62
     0
370
    -2
100
AcDbLine
 10
169.1066509986964
 20
45.32947650721766
 30
0.0
 11
167.2490004263884
 21
47.00253787823899
 31
0.0
  0
MTEXT
  5
CC3
330
B95
100
AcDbEntity
  8
0
 62
     0
100
AcDbMText
 10
195.8115784020274
 20
23.93115407122458
 30
0.0
 40
2.5
 41
0.0
 71
     5
 72
     1
  1
\U+22058
 11
0.7430602289231994
 21
-0.6692245484085313
 31
0.0
 73
     1
 44
1.0
  0
LINE
  5
CC4
330
B95
100
AcDbEntity
  8
0
 62
     0
370
    -2
100
AcDbLine
 10
170.9643015710044
 20
43.65641513619634
 30
0.0
 11
176.9087834023898
 21
38.30261874892823
 31
0.0
  0
SOLID
  5
CC5
330
B95
100
AcDbEntity
  8
0
 62
     0
100
AcDbTrace
 10
169.3854945605332
 20
45.63908493593565
 30
0.0
 11
168.8278074368595
 21
45.01986807849966
 31
0.0
 12
170.9643015710044
 22
43.65641513619634
 32
0.0
 13
170.9643015710044
 23
43.65641513619634
 33
0.0
  0
SOLID
  5
CC6
330
B95
100
AcDbEntity
  8
0
 62
     0
100
AcDbTrace
 10
179.0452775365347
 20
36.9391658066249
 30
0.0
 11
178.4875904128609
 21
36.31994894918892
 31
0.0
 12
176.9087834023898
 22
38.30261874892823
 32
0.0
 13
176.9087834023898
 23
38.30261874892823
 33
0.0
  0
POINT
  5
CC7
330
B95
100
AcDbEntity
  8
Defpoints
 62
     0
100
AcDbPoint
 10
176.9087834023898
 20
38.30261874892823
 30
0.0
  0
POINT
  5
CC8
330
B95
100
AcDbEntity
  8
Defpoints
 62
     0
100
AcDbPoint
 10
170.9643015710044
 20
43.65641513619634
 30
0.0
  0
ENDBLK
  5
B9F
330
B95
100
AcDbEntity
  8
0
100
AcDbBlockEnd
  0
BLOCK
  5
BB4
330
BAB
100
AcDbEntity
  8
0
100
AcDbBlockBegin
  2
*D32
 70
     1
 10
0.0
 20
0.0
 30
0.0
  3
*D32
  1

  0
LINE
  5
BB7
330
BAB
100
AcDbEntity
  8
0
 62
     0
370
    -2
100
AcDbLine
 10
1023.633573267321
 20
-157.9735152127048
 30
0.0
 11
1017.780559324478
 21
-151.6091381113984
 31
0.0
  0
LINE
  5
BB8
330
BAB
100
AcDbEntity
  8
0
 62
     0
370
    -2
100
AcDbLine
 10
1011.688298190016
 20
-144.9846113909804
 30
0.0
 11
1009.996003430444
 21
-143.1444650797531
 31
0.0
  0
MTEXT
  5
BB9
330
BAB
100
AcDbEntity
  8
0
 62
     0
100
AcDbMText
 10
1023.189717392792
 20
-154.5786360094679
 30
0.0
 40
2.5
 41
0.0
 71
     5
 72
     1
  1
\U+22054
 11
0.6769179038290384
 21
-0.7360585244908866
 31
0.0
 73
     1
 44
1.0
  0
LINE
  5
BBA
330
BAB
100
AcDbEntity
  8
0
 62
     0
370
    -2
100
AcDbLine
 10
1013.380592949589
 20
-146.8247577022076
 30
0.0
 11
1016.088264564905
 21
-149.7689918001711
 31
0.0
  0
SOLID
  5
BBB
330
BAB
100
AcDbEntity
  8
0
 62
     0
100
AcDbTrace
 10
1011.994989241888
 20
-144.702562264385
 30
0.0
 11
1011.381607138145
 21
-145.2666605175758
 31
0.0
 12
1013.380592949589
 22
-146.8247577022076
 32
0.0
 13
1013.380592949589
 23
-146.8247577022076
 33
0.0
  0
SOLID
  5
BBC
330
BAB
100
AcDbEntity
  8
0
 62
     0
100
AcDbTrace
 10
1018.087250376349
 20
-151.327088984803
 30
0.0
 11
1017.473868272606
 21
-151.8911872379938
 31
0.0
 12
1016.088264564905
 22
-149.7689918001711
 32
0.0
 13
1016.088264564905
 23
-149.7689918001711
 33
0.0
  0
POINT
  5
BBD
330
BAB
100
AcDbEntity
  8
Defpoints
 62
     0
100
AcDbPoint
 10
1016.088264564905
 20
-149.7689918001711
 30
0.0
  0
POINT
  5
BBE
330
BAB
100
AcDbEntity
  8
Defpoints
 62
     0
100
AcDbPoint
 10
1013.380592949589
 20
-146.8247577022076
 30
0.0
  0
ENDBLK
  5
BB5
330
BAB
100
AcDbEntity
  8
0
100
AcDbBlockEnd
  0
BLOCK
  5
BCB
330
BC1
100
AcDbEntity
  8
0
100
AcDbBlockBegin
  2
*D33
 70
     1
 10
0.0
 20
0.0
 30
0.0
  3
*D33
  1

  0
LINE
  5
BCE
330
BC1
100
AcDbEntity
  8
0
 62
     0
370
    -2
100
AcDbLine
 10
1466.5169612953
 20
202.3697476332005
 30
0.0
 11
1466.5169612953
 21
239.7542585054862
 31
0.0
  0
LINE
  5
BCF
330
BC1
100
AcDbEntity
  8
0
 62
     0
370
    -2
100
AcDbLine
 10
1146.5169612953
 20
202.3697476332005
 30
0.0
 11
1146.5169612953
 21
239.7542585054862
 31
0.0
  0
LINE
  5
BD0
330
BC1
100
AcDbEntity
  8
0
 62
     0
370
    -2
100
AcDbLine
 10
1464.0169612953
 20
238.5042585054862
 30
0.0
 11
1149.0169612953
 21
238.5042585054862
 31
0.0
  0
SOLID
  5
BD1
330
BC1
100
AcDbEntity
  8
0
 62
     0
100
AcDbTrace
 10
1464.0169612953
 20
238.9209251721528
 30
0.0
 11
1464.0169612953
 21
238.0875918388195
 31
0.0
 12
1466.5169612953
 22
238.5042585054862
 32
0.0
 13
1466.5169612953
 23
238.5042585054862
 33
0.0
  0
SOLID
  5
BD2
330
BC1
100
AcDbEntity
  8
0
 62
     0
100
AcDbTrace
 10
1149.0169612953
 20
238.9209251721528
 30
0.0
 11
1149.0169612953
 21
238.0875918388195
 31
0.0
 12
1146.5169612953
 22
238.5042585054862
 32
0.0
 13
1146.5169612953
 23
238.5042585054862
 33
0.0
  0
MTEXT
  5
BD3
330
BC1
100
AcDbEntity
  8
0
 62
     0
100
AcDbMText
 10
1306.5169612953
 20
240.4065436350905
 30
0.0
 40
2.5
 41
0.0
 71
     5
 72
     1
  1
320
 73
     1
 44
1.0
  0
POINT
  5
BD4
330
BC1
100
AcDbEntity
  8
Defpoints
 62
     0
100
AcDbPoint
 10
1466.5169612953
 20
201.7447476332005
 30
0.0
  0
POINT
  5
BD5
330
BC1
100
AcDbEntity
  8
Defpoints
 62
     0
100
AcDbPoint
 10
1146.5169612953
 20
201.7447476332005
 30
0.0
  0
POINT
  5
BD6
330
BC1
100
AcDbEntity
  8
Defpoints
 62
     0
100
AcDbPoint
 10
1146.5169612953
 20
238.5042585054862
 30
0.0
  0
ENDBLK
  5
BCC
330
BC1
100
AcDbEntity
  8
0
100
AcDbBlockEnd
  0
BLOCK
  5
C2A
330
C20
100
AcDbEntity
  8
0
100
AcDbBlockBegin
  2
*D34
 70
     1
 10
0.0
 20
0.0
 30
0.0
  3
*D34
  1

  0
LINE
  5
C2D
330
C20
100
AcDbEntity
  8
0
 62
     0
370
    -2
100
AcDbLine
 10
1482.1419612953
 20
536.7447476332004
 30
0.0
 11
1532.347024728617
 21
536.7447476332004
 31
0.0
  0
LINE
  5
C2E
330
C20
100
AcDbEntity
  8
0
 62
     0
370
    -2
100
AcDbLine
 10
1482.1419612953
 20
201.7447476332005
 30
0.0
 11
1532.347024728616
 21
201.7447476332005
 31
0.0
  0
LINE
  5
C2F
330
C20
100
AcDbEntity
  8
0
 62
     0
370
    -2
100
AcDbLine
 10
1531.097024728616
 20
534.2447476332004
 30
0.0
 11
1531.097024728616
 21
204.2447476332005
 31
0.0
  0
SOLID
  5
C30
330
C20
100
AcDbEntity
  8
0
 62
     0
100
AcDbTrace
 10
1530.68035806195
 20
534.2447476332004
 30
0.0
 11
1531.513691395283
 21
534.2447476332004
 31
0.0
 12
1531.097024728616
 22
536.7447476332004
 32
0.0
 13
1531.097024728616
 23
536.7447476332004
 33
0.0
  0
SOLID
  5
C31
330
C20
100
AcDbEntity
  8
0
 62
     0
100
AcDbTrace
 10
1530.680358061949
 20
204.2447476332005
 30
0.0
 11
1531.513691395283
 21
204.2447476332005
 31
0.0
 12
1531.097024728616
 22
201.7447476332005
 32
0.0
 13
1531.097024728616
 23
201.7447476332005
 33
0.0
  0
MTEXT
  5
C32
330
C20
100
AcDbEntity
  8
0
 62
     0
100
AcDbMText
 10
1529.194739599012
 20
369.2447476332006
 30
0.0
 40
2.5
 41
0.0
 71
     5
 72
     1
  1
335
 11
0.0000000000000001
 21
1.0
 31
0.0
 73
     1
 44
1.0
  0
POINT
  5
C33
330
C20
100
AcDbEntity
  8
Defpoints
 62
     0
100
AcDbPoint
 10
1481.5169612953
 20
536.7447476332004
 30
0.0
  0
POINT
  5
C34
330
C20
100
AcDbEntity
  8
Defpoints
 62
     0
100
AcDbPoint
 10
1481.5169612953
 20
201.7447476332005
 30
0.0
  0
POINT
  5
C35
330
C20
100
AcDbEntity
  8
Defpoints
 62
     0
100
AcDbPoint
 10
1531.097024728616
 20
201.7447476332005
 30
0.0
  0
ENDBLK
  5
C2B
330
C20
100
AcDbEntity
  8
0
100
AcDbBlockEnd
  0
BLOCK
  5
C42
330
C38
100
AcDbEntity
  8
0
100
AcDbBlockBegin
  2
*D35
 70
     1
 10
0.0
 20
0.0
 30
0.0
  3
*D35
  1

  0
LINE
  5
C45
330
C38
100
AcDbEntity
  8
0
 62
     0
370
    -2
100
AcDbLine
 10
1312.182140093454
 20
521.9083689454071
 30
0.0
 11
1312.182140093454
 21
580.29966583843
 31
0.0
  0
LINE
  5
C46
330
C38
100
AcDbEntity
  8
0
 62
     0
370
    -2
100
AcDbLine
 10
977.1821400934541
 20
521.9083689454071
 30
0.0
 11
977.1821400934541
 21
580.29966583843
 31
0.0
  0
LINE
  5
C47
330
C38
100
AcDbEntity
  8
0
 62
     0
370
    -2
100
AcDbLine
 10
1309.682140093454
 20
579.04966583843
 30
0.0
 11
979.6821400934542
 21
579.04966583843
 31
0.0
  0
SOLID
  5
C48
330
C38
100
AcDbEntity
  8
0
 62
     0
100
AcDbTrace
 10
1309.682140093454
 20
579.4663325050966
 30
0.0
 11
1309.682140093454
 21
578.6329991717633
 31
0.0
 12
1312.182140093454
 22
579.04966583843
 32
0.0
 13
1312.182140093454
 23
579.04966583843
 33
0.0
  0
SOLID
  5
C49
330
C38
100
AcDbEntity
  8
0
 62
     0
100
AcDbTrace
 10
979.6821400934542
 20
579.4663325050966
 30
0.0
 11
979.6821400934542
 21
578.6329991717633
 31
0.0
 12
977.1821400934541
 22
579.04966583843
 32
0.0
 13
977.1821400934541
 23
579.04966583843
 33
0.0
  0
MTEXT
  5
C4A
330
C38
100
AcDbEntity
  8
0
 62
     0
100
AcDbMText
 10
1144.682140093454
 20
580.9519509680343
 30
0.0
 40
2.5
 41
0.0
 71
     5
 72
     1
  1
335
 73
     1
 44
1.0
  0
POINT
  5
C4B
330
C38
100
AcDbEntity
  8
Defpoints
 62
     0
100
AcDbPoint
 10
1312.182140093454
 20
521.2833689454071
 30
0.0
  0
POINT
  5
C4C
330
C38
100
AcDbEntity
  8
Defpoints
 62
     0
100
AcDbPoint
 10
977.1821400934541
 20
521.2833689454071
 30
0.0
  0
POINT
  5
C4D
330
C38
100
AcDbEntity
  8
Defpoints
 62
     0
100
AcDbPoint
 10
977.1821400934541
 20
579.04966583843
 30
0.0
  0
ENDBLK
  5
C43
330
C38
100
AcDbEntity
  8
0
100
AcDbBlockEnd
  0
BLOCK
  5
C65
330
C5B
100
AcDbEntity
  8
0
100
AcDbBlockBegin
  2
*D36
 70
     1
 10
0.0
 20
0.0
 30
0.0
  3
*D36
  1

  0
LINE
  5
C68
330
C5B
100
AcDbEntity
  8
0
 62
     0
370
    -2
100
AcDbLine
 10
977.8071400934541
 20
521.2833689454071
 30
0.0
 11
1018.249156056346
 21
521.2833689454071
 31
0.0
  0
LINE
  5
C69
330
C5B
100
AcDbEntity
  8
0
 62
     0
370
    -2
100
AcDbLine
 10
977.8071400934541
 20
381.2833689454072
 30
0.0
 11
1018.249156056346
 21
381.2833689454072
 31
0.0
  0
LINE
  5
C6A
330
C5B
100
AcDbEntity
  8
0
 62
     0
370
    -2
100
AcDbLine
 10
1016.999156056346
 20
518.7833689454071
 30
0.0
 11
1016.999156056346
 21
383.7833689454072
 31
0.0
  0
SOLID
  5
C6B
330
C5B
100
AcDbEntity
  8
0
 62
     0
100
AcDbTrace
 10
1016.582489389679
 20
518.7833689454071
 30
0.0
 11
1017.415822723013
 21
518.7833689454071
 31
0.0
 12
1016.999156056346
 22
521.2833689454071
 32
0.0
 13
1016.999156056346
 23
521.2833689454071
 33
0.0
  0
SOLID
  5
C6C
330
C5B
100
AcDbEntity
  8
0
 62
     0
100
AcDbTrace
 10
1016.582489389679
 20
383.7833689454072
 30
0.0
 11
1017.415822723013
 21
383.7833689454072
 31
0.0
 12
1016.999156056346
 22
381.2833689454072
 32
0.0
 13
1016.999156056346
 23
381.2833689454072
 33
0.0
  0
MTEXT
  5
C6D
330
C5B
100
AcDbEntity
  8
0
 62
     0
100
AcDbMText
 10
1015.097723587042
 20
451.2833689454073
 30
0.0
 40
2.5
 41
0.0
 71
     5
 72
     1
  1
140
 11
0.0000000000000001
 21
1.0
 31
0.0
 73
     1
 44
1.0
  0
POINT
  5
C6E
330
C5B
100
AcDbEntity
  8
Defpoints
 62
     0
100
AcDbPoint
 10
977.1821400934541
 20
521.2833689454071
 30
0.0
  0
POINT
  5
C6F
330
C5B
100
AcDbEntity
  8
Defpoints
 62
     0
100
AcDbPoint
 10
977.1821400934541
 20
381.2833689454072
 30
0.0
  0
POINT
  5
C70
330
C5B
100
AcDbEntity
  8
Defpoints
 62
     0
100
AcDbPoint
 10
1016.999156056346
 20
381.2833689454072
 30
0.0
  0
ENDBLK
  5
C66
330
C5B
100
AcDbEntity
  8
0
100
AcDbBlockEnd
  0
BLOCK
  5
C7D
330
C73
100
AcDbEntity
  8
0
100
AcDbBlockBegin
  2
*D37
 70
     1
 10
0.0
 20
0.0
 30
0.0
  3
*D37
  1

  0
LINE
  5
C80
330
C73
100
AcDbEntity
  8
0
 62
     0
370
    -2
100
AcDbLine
 10
1480.036655835208
 20
202.3697476332005
 30
0.0
 11
1480.036655835208
 21
211.6970810155935
 31
0.0
  0
LINE
  5
C81
330
C73
100
AcDbEntity
  8
0
 62
     0
370
    -2
100
AcDbLine
 10
1340.036655835208
 20
202.3697476332005
 30
0.0
 11
1340.036655835208
 21
211.6970810155935
 31
0.0
  0
LINE
  5
C82
330
C73
100
AcDbEntity
  8
0
 62
     0
370
    -2
100
AcDbLine
 10
1477.536655835208
 20
210.4470810155935
 30
0.0
 11
1342.536655835208
 21
210.4470810155935
 31
0.0
  0
SOLID
  5
C83
330
C73
100
AcDbEntity
  8
0
 62
     0
100
AcDbTrace
 10
1477.536655835208
 20
210.8637476822602
 30
0.0
 11
1477.536655835208
 21
210.0304143489269
 31
0.0
 12
1480.036655835208
 22
210.4470810155935
 32
0.0
 13
1480.036655835208
 23
210.4470810155935
 33
0.0
  0
SOLID
  5
C84
330
C73
100
AcDbEntity
  8
0
 62
     0
100
AcDbTrace
 10
1342.536655835208
 20
210.8637476822602
 30
0.0
 11
1342.536655835208
 21
210.0304143489269
 31
0.0
 12
1340.036655835208
 22
210.4470810155935
 32
0.0
 13
1340.036655835208
 23
210.4470810155935
 33
0.0
  0
MTEXT
  5
C85
330
C73
100
AcDbEntity
  8
0
 62
     0
100
AcDbMText
 10
1410.036655835208
 20
212.3485134848978
 30
0.0
 40
2.5
 41
0.0
 71
     5
 72
     1
  1
140
 73
     1
 44
1.0
  0
POINT
  5
C86
330
C73
100
AcDbEntity
  8
Defpoints
 62
     0
100
AcDbPoint
 10
1480.036655835208
 20
201.7447476332005
 30
0.0
  0
POINT
  5
C87
330
C73
100
AcDbEntity
  8
Defpoints
 62
     0
100
AcDbPoint
 10
1340.036655835208
 20
201.7447476332005
 30
0.0
  0
POINT
  5
C88
330
C73
100
AcDbEntity
  8
Defpoints
 62
     0
100
AcDbPoint
 10
1340.036655835208
 20
210.4470810155935
 30
0.0
  0
ENDBLK
  5
C7E
330
C73
100
AcDbEntity
  8
0
100
AcDbBlockEnd
  0
BLOCK
  5
CA8
330
C9E
100
AcDbEntity
  8
0
100
AcDbBlockBegin
  2
*D38
 70
     1
 10
0.0
 20
0.0
 30
0.0
  3
*D38
  1

  0
LINE
  5
CAB
330
C9E
100
AcDbEntity
  8
0
 62
     0
370
    -2
100
AcDbLine
 10
1810.40358730585
 20
-153.0384948304413
 30
0.0
 11
1926.60824152472
 21
-153.0384948304414
 31
0.0
  0
LINE
  5
CAC
330
C9E
100
AcDbEntity
  8
0
 62
     0
370
    -2
100
AcDbLine
 10
1810.40358730585
 20
-253.0384948304413
 30
0.0
 11
1926.60824152472
 21
-253.0384948304414
 31
0.0
  0
LINE
  5
CAD
330
C9E
100
AcDbEntity
  8
0
 62
     0
370
    -2
100
AcDbLine
 10
1925.35824152472
 20
-155.5384948304413
 30
0.0
 11
1925.35824152472
 21
-250.5384948304414
 31
0.0
  0
SOLID
  5
CAE
330
C9E
100
AcDbEntity
  8
0
 62
     0
100
AcDbTrace
 10
1924.941574858053
 20
-155.5384948304413
 30
0.0
 11
1925.774908191386
 21
-155.5384948304413
 31
0.0
 12
1925.35824152472
 22
-153.0384948304414
 32
0.0
 13
1925.35824152472
 23
-153.0384948304414
 33
0.0
  0
SOLID
  5
CAF
330
C9E
100
AcDbEntity
  8
0
 62
     0
100
AcDbTrace
 10
1924.941574858053
 20
-250.5384948304414
 30
0.0
 11
1925.774908191386
 21
-250.5384948304414
 31
0.0
 12
1925.35824152472
 22
-253.0384948304414
 32
0.0
 13
1925.35824152472
 23
-253.0384948304414
 33
0.0
  0
MTEXT
  5
CB0
330
C9E
100
AcDbEntity
  8
0
 62
     0
100
AcDbMText
 10
1923.456809055415
 20
-203.0384948304411
 30
0.0
 40
2.5
 41
0.0
 71
     5
 72
     1
  1
100
 11
0.0000000000000001
 21
1.0
 31
0.0
 73
     1
 44
1.0
  0
POINT
  5
CB1
330
C9E
100
AcDbEntity
  8
Defpoints
 62
     0
100
AcDbPoint
 10
1809.77858730585
 20
-153.0384948304413
 30
0.0
  0
POINT
  5
CB2
330
C9E
100
AcDbEntity
  8
Defpoints
 62
     0
100
AcDbPoint
 10
1809.77858730585
 20
-253.0384948304413
 30
0.0
  0
POINT
  5
CB3
330
C9E
100
AcDbEntity
  8
Defpoints
 62
     0
100
AcDbPoint
 10
1925.35824152472
 20
-253.0384948304414
 30
0.0
  0
ENDBLK
  5
CA9
330
C9E
100
AcDbEntity
  8
0
100
AcDbBlockEnd
  0
BLOCK
  5
CD5
330
CCB
100
AcDbEntity
  8
0
100
AcDbBlockBegin
  2
*D39
 70
     1
 10
0.0
 20
0.0
 30
0.0
  3
*D39
  1

  0
LINE
  5
CD8
330
CCB
100
AcDbEntity
  8
0
 62
     0
370
    -2
100
AcDbLine
 10
8.001338757168582
 20
388.600912639047
 30
0.0
 11
8.001338757168573
 21
230.5479545650023
 31
0.0
  0
LINE
  5
CD9
330
CCB
100
AcDbEntity
  8
0
 62
     0
370
    -2
100
AcDbLine
 10
899.293118172072
 20
339.0622913268402
 30
0.0
 11
899.293118172072
 21
230.5479545650023
 31
0.0
  0
LINE
  5
CDA
330
CCB
100
AcDbEntity
  8
0
 62
     0
370
    -2
100
AcDbLine
 10
10.50133875716857
 20
231.7979545650023
 30
0.0
 11
896.793118172072
 21
231.7979545650023
 31
0.0
  0
SOLID
  5
CDB
330
CCB
100
AcDbEntity
  8
0
 62
     0
100
AcDbTrace
 10
10.50133875716857
 20
232.214621231669
 30
0.0
 11
10.50133875716857
 21
231.3812878983357
 31
0.0
 12
8.001338757168573
 22
231.7979545650023
 32
0.0
 13
8.001338757168573
 23
231.7979545650023
 33
0.0
  0
SOLID
  5
CDC
330
CCB
100
AcDbEntity
  8
0
 62
     0
100
AcDbTrace
 10
896.793118172072
 20
232.214621231669
 30
0.0
 11
896.793118172072
 21
231.3812878983357
 31
0.0
 12
899.293118172072
 22
231.7979545650023
 32
0.0
 13
899.293118172072
 23
231.7979545650023
 33
0.0
  0
MTEXT
  5
CDD
330
CCB
100
AcDbEntity
  8
0
 62
     0
100
AcDbMText
 10
453.6472284646203
 20
233.9253420138427
 30
0.0
 40
2.5
 41
0.0
 71
     5
 72
     1
  1
891,29
 73
     1
 44
1.0
  0
POINT
  5
CDE
330
CCB
100
AcDbEntity
  8
Defpoints
 62
     0
100
AcDbPoint
 10
8.001338757168582
 20
389.225912639047
 30
0.0
  0
POINT
  5
CDF
330
CCB
100
AcDbEntity
  8
Defpoints
 62
     0
100
AcDbPoint
 10
899.293118172072
 20
339.6872913268402
 30
0.0
  0
POINT
  5
CE0
330
CCB
100
AcDbEntity
  8
Defpoints
 62
     0
100
AcDbPoint
 10
899.293118172072
 20
231.7979545650023
 30
0.0
  0
ENDBLK
  5
CD6
330
CCB
100
AcDbEntity
  8
0
100
AcDbBlockEnd
  0
ENDSEC
  0
SECTION
  2
ENTITIES
  0
LWPOLYLINE
  5
6F0
330
1F
100
AcDbEntity
  8
0
 62
    30
100
AcDbPolyline
 90
        4
 70
     1
 43
0.0
 10
0.0
 20
-0.0000000000000284
 10
1200.0
 20
-0.0000000000000284
 10
1200.0
 20
399.9999999999999
 10
0.0
 20
399.9999999999999
  0
CIRCLE
  5
709
330
1F
100
AcDbEntity
  8
VISIBLE
100
AcDbCircle
 10
759.293118172072
 20
105.6872913268403
 30
0.0000000000002274
 40
4.0
  0
CIRCLE
  5
70A
330
1F
100
AcDbEntity
  8
VISIBLE
100
AcDbCircle
 10
659.293118172072
 20
105.6872913268403
 30
0.0000000000002274
 40
4.0
  0
CIRCLE
  5
70B
330
1F
100
AcDbEntity
  8
VISIBLE
100
AcDbCircle
 10
693.793118172072
 20
90.18729132684029
 30
0.0000000000002274
 40
2.0
  0
CIRCLE
  5
70C
330
1F
100
AcDbEntity
  8
VISIBLE
100
AcDbCircle
 10
709.293118172072
 20
105.6872913268403
 30
0.0000000000002274
 40
11.0
  0
CIRCLE
  5
70D
330
1F
100
AcDbEntity
  8
VISIBLE
100
AcDbCircle
 10
693.793118170084
 20
121.1872913248527
 30
0.0000000000002274
 40
2.0
  0
CIRCLE
  5
70E
330
1F
100
AcDbEntity
  8
VISIBLE
100
AcDbCircle
 10
724.7931181680959
 20
121.1872913308153
 30
0.0000000000002274
 40
2.0
  0
CIRCLE
  5
70F
330
1F
100
AcDbEntity
  8
VISIBLE
100
AcDbCircle
 10
724.7931181780339
 20
90.18729133280306
 30
0.0000000000002274
 40
2.0
  0
LWPOLYLINE
  5
710
330
1F
100
AcDbEntity
  8
VISIBLE
100
AcDbPolyline
 90
       20
 70
     1
 43
0.0
 10
519.2931181720719
 20
119.6872913268403
 10
519.2931181720719
 20
169.6872913268403
 10
529.293118172072
 20
169.6872913268403
 10
529.293118172072
 20
289.6872913268402
 10
519.2931181720719
 20
289.6872913268402
 10
519.2931181720719
 20
339.6872913268402
 10
529.293118172072
 20
339.6872913268402
 10
529.293118172072
 20
389.6872913268402
 10
889.2931181720721
 20
389.6872913268402
 10
889.2931181720721
 20
339.6872913268402
 10
899.293118172072
 20
339.6872913268402
 10
899.293118172072
 20
289.6872913268402
 10
889.2931181720721
 20
289.6872913268402
 10
889.2931181720721
 20
169.6872913268403
 10
899.293118172072
 20
169.6872913268403
 10
899.293118172072
 20
119.6872913268403
 10
889.2931181720721
 20
119.6872913268403
 10
889.2931181720721
 20
69.68729132684029
 10
529.293118172072
 20
69.68729132684029
 10
529.293118172072
 20
119.6872913268403
  0
CIRCLE
  5
711
330
1F
100
AcDbEntity
  8
check
 62
     1
100
AcDbCircle
 10
459.293118172072
 20
314.6872913268402
 30
0.0000000000001137
 40
11.0
  0
CIRCLE
  5
712
330
1F
100
AcDbEntity
  8
check
 62
     1
100
AcDbCircle
 10
-443.793118172072
 20
330.1872913268404
 30
-0.0000000000001137
 40
2.0
210
0.0
220
0.0
230
-1.0
  0
CIRCLE
  5
713
330
1F
100
AcDbEntity
  8
check
 62
     1
100
AcDbCircle
 10
459.293118172072
 20
264.6872913268404
 30
0.0000000000001137
 40
4.0
  0
CIRCLE
  5
714
330
1F
100
AcDbEntity
  8
check
 62
     1
100
AcDbCircle
 10
-474.793118172072
 20
299.1872913268404
 30
-0.0000000000001137
 40
2.0
210
0.0
220
0.0
230
-1.0
  0
CIRCLE
  5
715
330
1F
100
AcDbEntity
  8
check
 62
     1
100
AcDbCircle
 10
459.293118172072
 20
364.6872913268404
 30
0.0000000000001137
 40
4.0
  0
CIRCLE
  5
716
330
1F
100
AcDbEntity
  8
check
 62
     1
100
AcDbCircle
 10
474.793118172072
 20
330.1872913268404
 30
0.0000000000001137
 40
2.0
  0
CIRCLE
  5
717
330
1F
100
AcDbEntity
  8
check
 62
     1
100
AcDbCircle
 10
443.793118172072
 20
299.1872913268404
 30
0.0000000000001137
 40
2.0
  0
LWPOLYLINE
  5
718
330
1F
100
AcDbEntity
  8
check
 62
     1
100
AcDbPolyline
 90
       21
 70
     1
 43
0.0
 10
430.8558544989224
 20
69.68729132684029
 10
430.8558544989224
 20
79.68729132684029
 10
470.8558544989224
 20
79.68729132684029
 10
470.8558544989224
 20
69.68729132684035
 10
510.8558544989224
 20
69.68729132684035
 10
510.8558544989224
 20
119.6872913268403
 10
500.8558544989224
 20
119.6872913268403
 10
500.8558544989224
 20
169.6872913268403
 10
510.8558544989224
 20
169.6872913268403
 10
510.8558544989224
 20
289.6872913268404
 10
500.8558544989224
 20
289.6872913268402
 10
500.8558544989224
 20
339.6872913268402
 10
510.8558544989224
 20
339.6872913268402
 10
510.8558544989224
 20
404.6872913268402
 10
390.8558544989224
 20
404.6872913268402
 42
-0.284251879864389
 10
190.8558544989224
 20
124.6872913268401
 10
190.8558544989224
 20
114.6872913268403
 10
200.8558544989224
 20
114.6872913268403
 10
200.8558544989224
 20
79.68729132684035
 10
190.8558544989224
 20
79.68729132684035
 10
190.8558544989224
 20
69.68729132684035
  0
CIRCLE
  5
719
330
1F
100
AcDbEntity
  8
VISIBLE
 62
     5
100
AcDbCircle
 10
459.293118172072
 20
264.6872913268404
 30
0.0000000000001137
 40
4.0
  0
CIRCLE
  5
71A
330
1F
100
AcDbEntity
  8
VISIBLE
 62
     5
100
AcDbCircle
 10
459.293118172072
 20
314.6872913268402
 30
0.0000000000001137
 40
11.0
  0
CIRCLE
  5
71B
330
1F
100
AcDbEntity
  8
VISIBLE
 62
     5
100
AcDbCircle
 10
459.293118172072
 20
364.6872913268404
 30
0.0000000000001137
 40
4.0
  0
CIRCLE
  5
71D
330
1F
100
AcDbEntity
  8
check
 62
     1
100
AcDbCircle
 10
261.4386024303184
 20
329.2259126390471
 30
0.0000000000001137
 40
11.0
  0
CIRCLE
  5
71E
330
1F
100
AcDbEntity
  8
check
 62
     1
100
AcDbCircle
 10
-276.9386024303175
 20
313.7259126390476
 30
-0.0000000000001137
 40
2.0
210
0.0
220
0.0
230
-1.0
  0
CIRCLE
  5
71F
330
1F
100
AcDbEntity
  8
check
 62
     1
100
AcDbCircle
 10
211.4386024303184
 20
329.2259126390471
 30
0.0000000000001137
 40
4.0
  0
CIRCLE
  5
720
330
1F
100
AcDbEntity
  8
check
 62
     1
100
AcDbCircle
 10
-245.9386024303175
 20
344.7259126390469
 30
-0.0000000000001137
 40
2.0
210
0.0
220
0.0
230
-1.0
  0
CIRCLE
  5
721
330
1F
100
AcDbEntity
  8
check
 62
     1
100
AcDbCircle
 10
311.4386024303184
 20
329.2259126390471
 30
0.0000000000001137
 40
4.0
  0
CIRCLE
  5
722
330
1F
100
AcDbEntity
  8
check
 62
     1
100
AcDbCircle
 10
276.9386024303175
 20
344.7259126390469
 30
0.0000000000001137
 40
2.0
  0
CIRCLE
  5
723
330
1F
100
AcDbEntity
  8
check
 62
     1
100
AcDbCircle
 10
245.9386024303175
 20
313.7259126390476
 30
0.0000000000001137
 40
2.0
  0
LWPOLYLINE
  5
724
330
1F
100
AcDbEntity
  8
check
 62
     1
100
AcDbPolyline
 90
       21
 70
     1
 43
0.0
 10
8.001338757168582
 20
349.225912639047
 10
8.001338757168582
 20
389.225912639047
 10
58.0013387571679
 20
389.225912639047
 10
58.0013387571679
 20
379.225912639047
 10
108.0013387571688
 20
379.225912639047
 10
108.0013387571688
 20
389.225912639047
 10
228.0013387571679
 20
389.225912639047
 10
228.0013387571679
 20
379.225912639047
 10
278.0013387571679
 20
379.225912639047
 10
278.0013387571679
 20
389.225912639047
 10
343.0013387571688
 20
389.225912639047
 10
343.0013387571688
 20
269.2259126390469
 42
0.2842518798643883
 10
63.0013387571679
 20
69.22591263904727
 10
53.0013387571679
 20
69.22591263904727
 10
53.0013387571679
 20
79.22591263904715
 10
18.00133875716858
 20
79.22591263904715
 10
18.00133875716858
 20
69.22591263904727
 10
8.001338757168582
 20
69.22591263904727
 10
8.001338757168582
 20
309.225912639047
 10
18.00133875716858
 20
309.225912639047
 10
18.00133875716858
 20
349.225912639047
  0
CIRCLE
  5
725
330
1F
100
AcDbEntity
  8
VISIBLE
 62
     5
100
AcDbCircle
 10
211.4386024303184
 20
329.2259126390471
 30
0.0000000000001137
 40
4.0
  0
CIRCLE
  5
726
330
1F
100
AcDbEntity
  8
VISIBLE
 62
     5
100
AcDbCircle
 10
261.4386024303184
 20
329.2259126390471
 30
0.0000000000001137
 40
11.0
  0
CIRCLE
  5
727
330
1F
100
AcDbEntity
  8
VISIBLE
 62
     5
100
AcDbCircle
 10
311.4386024303184
 20
329.2259126390471
 30
0.0000000000001137
 40
4.0
  0
LWPOLYLINE
  5
8CF
330
1F
100
AcDbEntity
  8
0
100
AcDbPolyline
 90
       25
 70
     1
 43
0.0
 10
831.6489404119039
 20
83.32972099141271
 10
829.7824594060976
 20
82.33944986724532
 42
-0.6330743856797221
 10
828.3335083106154
 20
83.42045992376796
 10
828.7515059660288
 20
85.49368485467937
 42
-0.1845185196038105
 10
825.5246684998038
 20
93.04120299601899
 10
823.7269379373252
 20
94.17786019380292
 42
-0.6315321932194484
 10
823.9423745291894
 20
95.97084680786693
 10
825.9581982610585
 20
96.64928578270441
 42
-0.1845185196038091
 10
830.8811219738696
 20
103.2175680730083
 10
830.9666307013058
 20
105.3427770081665
 42
-0.6315321932194477
 10
832.6271209536626
 20
106.0526967537394
 10
834.2225782067236
 20
104.6461616798081
 42
-0.1845185196038095
 10
842.3723393857605
 20
103.6669258287725
 10
844.2555786756749
 20
104.6554775661469
 42
-0.6315321932194471
 10
845.7006323361676
 20
103.5724106976558
 10
845.2802658573601
 20
101.4874366488871
 42
-0.1845185196038094
 10
848.507103323585
 20
93.93991850754757
 10
850.3048338860637
 20
92.8032613097636
 42
-0.6315321932194404
 10
850.0893972941995
 20
91.0102746956996
 10
848.0735735623309
 20
90.33183572086207
 42
-0.1845185196038095
 10
843.1506498495192
 20
83.76355343055811
 10
843.065141122083
 20
81.63834449540004
 42
-0.6315321932194549
 10
841.4046508697262
 20
80.92842474982715
 10
839.8091936166652
 20
82.33495982375826
 42
-0.1859029388339444
 10
831.6489404119039
 20
83.32972099141271
 42
-0.0078398515889997
  0
ARC
  5
8D1
330
1F
100
AcDbEntity
  8
VISIBLE
100
AcDbCircle
 10
-80.55362742096178
 20
-330.3543310575495
 30
0.0
 40
11.0
210
0.0
220
0.0
230
-1.0
100
AcDbArc
 50
114.619977328658
 51
65.38002267134196
  0
CIRCLE
  5
8D2
330
1F
100
AcDbEntity
  8
VISIBLE
100
AcDbCircle
 10
-45.55362742096178
 20
-330.3543310575495
 30
0.0
 40
2.0
210
0.0
220
0.0
230
-1.0
  0
CIRCLE
  5
8D3
330
1F
100
AcDbEntity
  8
VISIBLE
100
AcDbCircle
 10
-115.5536274209618
 20
-330.3543310575495
 30
0.0
 40
2.0
210
0.0
220
0.0
230
-1.0
  0
CIRCLE
  5
8D4
330
1F
100
AcDbEntity
  8
check
 62
     1
100
AcDbCircle
 10
-204.253627420962
 20
-332.8543310575494
 30
0.0
 40
1.5
210
0.0
220
0.0
230
-1.0
  0
CIRCLE
  5
8D5
330
1F
100
AcDbEntity
  8
check
 62
     1
100
AcDbCircle
 10
181.753627420962
 20
-345.3543310575494
 30
0.0
 40
2.0
  0
CIRCLE
  5
8D6
330
1F
100
AcDbEntity
  8
check
 62
     1
100
AcDbCircle
 10
204.253627420962
 20
-357.8543310575494
 30
0.0
 40
1.5
  0
CIRCLE
  5
8D7
330
1F
100
AcDbEntity
  8
check
 62
     1
100
AcDbCircle
 10
216.753627420962
 20
-345.3543310575494
 30
0.0
 40
11.0
  0
CIRCLE
  5
8D8
330
1F
100
AcDbEntity
  8
check
 62
     1
100
AcDbCircle
 10
-229.253627420962
 20
-357.8543310575494
 30
0.0
 40
1.5
210
0.0
220
0.0
230
-1.0
  0
CIRCLE
  5
8D9
330
1F
100
AcDbEntity
  8
check
 62
     1
100
AcDbCircle
 10
229.253627420962
 20
-332.8543310575494
 30
0.0
 40
1.5
  0
CIRCLE
  5
8DA
330
1F
100
AcDbEntity
  8
check
 62
     1
100
AcDbCircle
 10
251.7536274209621
 20
-345.3543310575494
 30
0.0
 40
2.0
  0
LWPOLYLINE
  5
8DB
330
1F
100
AcDbEntity
  8
check
 62
     1
100
AcDbPolyline
 90
       12
 70
     1
 43
0.0
 10
200.253627420962
 20
-385.3543310575495
 10
200.253627420962
 20
-395.3543310575495
 10
168.253627420962
 20
-395.3543310575495
 10
168.253627420962
 20
-385.3543310575495
 10
151.753627420962
 20
-385.3543310575495
 10
151.753627420962
 20
-320.3543310575496
 10
281.7536274209621
 20
-320.3543310575495
 10
281.7536274209621
 20
-385.3543310575495
 10
265.2536274209621
 20
-385.3543310575495
 10
265.2536274209621
 20
-395.3543310575495
 10
233.253627420962
 20
-395.3543310575495
 10
233.253627420962
 20
-385.3543310575495
  0
LWPOLYLINE
  5
8DC
330
1F
100
AcDbEntity
  8
VISIBLE
100
AcDbPolyline
 90
       15
 70
     0
 43
0.0
 10
85.13620311591774
 20
-320.3543310575496
 10
145.5536274209618
 20
-320.3543310575496
 10
145.5536274209618
 20
-370.3543310575496
 10
145.5536274209618
 20
-370.3543310575496
 10
129.0536274209618
 20
-370.3543310575496
 10
129.0536274209618
 20
-380.3543310575496
 10
97.05362742096179
 20
-380.3543310575496
 10
97.05362742096179
 20
-370.3543310575496
 10
64.05362742096179
 20
-370.3543310575496
 10
64.05362742096179
 20
-380.3543310575496
 10
32.05362742096179
 20
-380.3543310575496
 10
32.05362742096179
 20
-370.3543310575496
 10
15.55362742096179
 20
-370.3543310575496
 10
15.55362742096179
 20
-320.3543310575496
 10
75.97105172600584
 20
-320.3543310575496
  0
LWPOLYLINE
  5
8E1
330
1F
100
AcDbEntity
  8
tags
100
AcDbPolyline
 90
        2
 70
     0
 43
0.0
 10
125.2775555168151
 20
-345.3543310575496
 10
170.086136317415
 20
-345.3543310575496
  0
LWPOLYLINE
  5
8E2
330
1F
100
AcDbEntity
  8
tags
100
AcDbPolyline
 90
        2
 70
     0
 43
0.0
 10
187.320206464197
 20
-306.2108957586097
 10
187.320206464197
 20
-331.0874709752425
  0
LWPOLYLINE
  5
8E5
330
1F
100
AcDbEntity
  8
tags
100
AcDbPolyline
 90
        2
 70
     0
 43
0.0
 10
859.7874810421869
 20
144.6872913268403
 10
918.3128212358417
 20
144.6872913268403
  0
LWPOLYLINE
  5
8E6
330
1F
100
AcDbEntity
  8
tags
100
AcDbPolyline
 90
        2
 70
     0
 43
0.0
 10
859.7874810421869
 20
314.6872913268402
 10
902.6106696651323
 20
314.6872913268402
  0
LWPOLYLINE
  5
8EE
330
1F
100
AcDbEntity
  8
tags
100
AcDbPolyline
 90
        3
 70
     0
 43
0.0
 10
80.55362742096178
 20
-370.3543310575496
 10
80.55362742096178
 20
-389.9120379005962
 10
80.55362742096178
 20
-354.7889462763533
  0
LWPOLYLINE
  5
8EF
330
1F
100
AcDbEntity
  8
tags
100
AcDbPolyline
 90
        3
 70
     0
 43
0.0
 10
216.753627420962
 20
-385.3543310575495
 10
216.753627420962
 20
-370.5337809416078
 10
216.753627420962
 20
-406.8680145118633
  0
LWPOLYLINE
  5
8F2
330
1F
100
AcDbEntity
  8
tags
100
AcDbPolyline
 90
        3
 70
     0
 43
0.0
 10
413.936542486697
 20
32.47951694256239
 10
437.0085897949958
 20
32.47951694256239
 10
399.0631325951164
 20
32.47951694256239
  0
LWPOLYLINE
  5
8F3
330
1F
100
AcDbEntity
  8
tags
100
AcDbPolyline
 90
        2
 70
     0
 43
0.0
 10
223.9365424866968
 20
40.97951694256238
 10
223.9365424866968
 20
91.25818644692023
  0
LWPOLYLINE
  5
8F4
330
1F
100
AcDbEntity
  8
tags
100
AcDbPolyline
 90
        3
 70
     0
 43
0.0
 10
33.93654248669702
 20
32.47951694256239
 10
48.66049160565864
 20
32.47951694256239
 10
20.79429610394084
 20
32.47951694256239
  0
LWPOLYLINE
  5
8F5
330
1F
100
AcDbEntity
  8
tags
100
AcDbPolyline
 90
        2
 70
     0
 43
0.0
 10
192.3361599590149
 20
119.6872913268402
 10
173.3384944638229
 20
119.6872913268402
  0
LWPOLYLINE
  5
8F6
330
1F
100
AcDbEntity
  8
tags
100
AcDbPolyline
 90
        2
 70
     0
 43
0.0
 10
192.3361599590149
 20
74.68729132684035
 10
168.1095190573952
 20
74.68729132684035
  0
LWPOLYLINE
  5
8F7
330
1F
100
AcDbEntity
  8
tags
100
AcDbPolyline
 90
        2
 70
     0
 43
0.0
 10
58.0013387571679
 20
69.22591263904727
 10
58.0013387571679
 20
49.24764180705324
  0
LWPOLYLINE
  5
8F8
330
1F
100
AcDbEntity
  8
tags
100
AcDbPolyline
 90
        2
 70
     0
 43
0.0
 10
13.00133875716858
 20
69.22591263904727
 10
13.00133875716858
 20
37.89391663290781
  0
LWPOLYLINE
  5
8F9
330
1F
100
AcDbEntity
  8
tags
100
AcDbPolyline
 90
        2
 70
     0
 43
0.0
 10
500.8558544989224
 20
144.6872913268403
 10
536.5613085174983
 20
144.6872913268403
  0
LWPOLYLINE
  5
8FA
330
1F
100
AcDbEntity
  8
tags
100
AcDbPolyline
 90
        2
 70
     0
 43
0.0
 10
500.8558544989224
 20
314.6872913268402
 10
537.3147815944331
 20
314.6872913268402
  0
LWPOLYLINE
  5
8FB
330
1F
100
AcDbEntity
  8
tags
100
AcDbPolyline
 90
        3
 70
     0
 43
0.0
 10
537.3147815944331
 20
314.6872913268402
 10
529.293118172072
 20
364.6872913268402
 10
499.1354421269508
 20
364.6872913268402
  0
LWPOLYLINE
  5
8FD
330
1F
100
AcDbEntity
  8
tags
100
AcDbPolyline
 90
        2
 70
     0
 43
0.0
 10
500.6108545700945
 20
258.8358486025659
 10
563.3156976323345
 20
258.8358486025659
  0
LWPOLYLINE
  5
8FE
330
1F
100
AcDbEntity
  8
tags
100
AcDbPolyline
 90
        2
 70
     0
 43
0.0
 10
499.1354421269508
 20
202.8088081547498
 10
569.9550338635701
 20
202.8088081547498
  0
LWPOLYLINE
  5
8FF
330
1F
100
AcDbEntity
  8
tags
100
AcDbPolyline
 90
        2
 70
     0
 43
0.0
 10
709.293118172072
 20
78.93321483196178
 10
709.293118172072
 20
27.35570752519789
  0
LWPOLYLINE
  5
900
330
1F
100
AcDbEntity
  8
tags
100
AcDbPolyline
 90
        2
 70
     0
 43
0.0
 10
695.7734236321645
 20
389.6872913268402
 10
695.7734236321645
 20
415.1218052148283
  0
LWPOLYLINE
  5
904
330
1F
100
AcDbEntity
  8
0
 62
    30
100
AcDbPolyline
 90
        4
 70
     1
 43
0.0
 10
0.0
 20
-449.9999999999999
 10
1200.0
 20
-449.9999999999999
 10
1200.0
 20
-50.0
 10
0.0
 20
-50.0
  0
LWPOLYLINE
  5
905
330
1F
100
AcDbEntity
  8
Costruzione
 62
     1
100
AcDbPolyline
 90
        4
 70
     1
 43
0.0
 10
119.553627420962
 20
-280.6543310575495
 10
139.553627420962
 20
-280.6543310575495
 42
-1.0
 10
139.553627420962
 20
-287.6543310575495
 10
119.553627420962
 20
-287.6543310575495
 42
-1.0
  0
LWPOLYLINE
  5
906
330
1F
100
AcDbEntity
  8
Costruzione
 62
     1
100
AcDbPolyline
 90
        4
 70
     1
 43
0.0
 10
21.55362742096213
 20
-280.6543310575495
 10
41.55362742096213
 20
-280.6543310575495
 42
-1.0
 10
41.55362742096213
 20
-287.6543310575493
 10
21.55362742096213
 20
-287.6543310575493
 42
-1.0
  0
LWPOLYLINE
  5
907
330
1F
100
AcDbEntity
  8
Costruzione
 62
     1
100
AcDbPolyline
 90
        4
 70
     1
 43
0.0
 10
115.553627420962
 20
-180.6543310575495
 10
135.553627420962
 20
-180.6543310575495
 42
-1.0
 10
135.553627420962
 20
-187.6543310575495
 10
115.553627420962
 20
-187.6543310575495
 42
-1.0
  0
LWPOLYLINE
  5
908
330
1F
100
AcDbEntity
  8
Costruzione
 62
     1
100
AcDbPolyline
 90
        4
 70
     1
 43
0.0
 10
25.55362742096213
 20
-180.6543310575495
 10
45.55362742096201
 20
-180.6543310575495
 42
-1.0
 10
45.55362742096201
 20
-187.6543310575495
 10
25.55362742096213
 20
-187.6543310575495
 42
-1.0
  0
LWPOLYLINE
  5
909
330
1F
100
AcDbEntity
  8
Costruzione
 62
     1
100
AcDbPolyline
 90
        2
 70
     0
 43
0.0
 10
97.05362742096202
 20
-314.1543310575495
 10
64.05362742096201
 20
-314.1543310575495
  0
CIRCLE
  5
90A
330
1F
100
AcDbEntity
  8
Costruzione
 62
     1
100
AcDbCircle
 10
20.55362742096201
 20
-302.1543310575495
 30
0.0
 40
2.0
  0
CIRCLE
  5
90B
330
1F
100
AcDbEntity
  8
Costruzione
 62
     1
100
AcDbCircle
 10
-20.55362742096201
 20
-266.1543310575495
 30
0.0
 40
2.0
210
0.0
220
0.0
230
-1.0
  0
CIRCLE
  5
90C
330
1F
100
AcDbEntity
  8
Costruzione
 62
     1
100
AcDbCircle
 10
25.55362742096213
 20
-174.1543310575495
 30
0.0
 40
2.0
  0
CIRCLE
  5
90D
330
1F
100
AcDbEntity
  8
Costruzione
 62
     1
100
AcDbCircle
 10
68.05362742096201
 20
-208.1543310575493
 30
0.0
 40
2.0
  0
CIRCLE
  5
90E
330
1F
100
AcDbEntity
  8
Costruzione
 62
     1
100
AcDbCircle
 10
-68.05362742096201
 20
-260.1543310575495
 30
0.0
 40
2.0
210
0.0
220
0.0
230
-1.0
  0
CIRCLE
  5
90F
330
1F
100
AcDbEntity
  8
Costruzione
 62
     1
100
AcDbCircle
 10
-93.05362742096225
 20
-208.1543310575495
 30
0.0
 40
2.0
210
0.0
220
0.0
230
-1.0
  0
CIRCLE
  5
910
330
1F
100
AcDbEntity
  8
Costruzione
 62
     1
100
AcDbCircle
 10
-140.553627420962
 20
-302.1543310575495
 30
0.0
 40
2.0
210
0.0
220
0.0
230
-1.0
  0
CIRCLE
  5
911
330
1F
100
AcDbEntity
  8
Costruzione
 62
     1
100
AcDbCircle
 10
140.553627420962
 20
-266.1543310575495
 30
0.0
 40
2.0
  0
CIRCLE
  5
912
330
1F
100
AcDbEntity
  8
Costruzione
 62
     1
100
AcDbCircle
 10
108.553627420962
 20
-194.1543310575495
 30
0.0
 40
2.0
  0
CIRCLE
  5
913
330
1F
100
AcDbEntity
  8
Costruzione
 62
     1
100
AcDbCircle
 10
93.05362742096225
 20
-260.1543310575495
 30
0.0
 40
2.0
  0
CIRCLE
  5
914
330
1F
100
AcDbEntity
  8
Costruzione
 62
     1
100
AcDbCircle
 10
52.55362742096213
 20
-174.1543310575495
 30
0.0
 40
2.0
  0
CIRCLE
  5
915
330
1F
100
AcDbEntity
  8
Costruzione
 62
     1
100
AcDbCircle
 10
135.553627420962
 20
-194.1543310575495
 30
0.0
 40
2.0
  0
CIRCLE
  5
916
330
1F
100
AcDbEntity
  8
Costruzione
 62
     1
100
AcDbCircle
 10
271.7536274209621
 20
-194.1543310575495
 30
0.0
 40
2.0
  0
CIRCLE
  5
917
330
1F
100
AcDbEntity
  8
Costruzione
 62
     1
100
AcDbCircle
 10
188.753627420962
 20
-174.1543310575495
 30
0.0
 40
2.0
  0
CIRCLE
  5
918
330
1F
100
AcDbEntity
  8
Costruzione
 62
     1
100
AcDbCircle
 10
229.253627420962
 20
-260.1543310575495
 30
0.0
 40
2.0
  0
CIRCLE
  5
919
330
1F
100
AcDbEntity
  8
Costruzione
 62
     1
100
AcDbCircle
 10
244.7536274209621
 20
-194.1543310575495
 30
0.0
 40
2.0
  0
CIRCLE
  5
91C
330
1F
100
AcDbEntity
  8
Costruzione
 62
     1
100
AcDbCircle
 10
-229.253627420962
 20
-208.1543310575495
 30
0.0
 40
2.0
210
0.0
220
0.0
230
-1.0
  0
CIRCLE
  5
91D
330
1F
100
AcDbEntity
  8
Costruzione
 62
     1
100
AcDbCircle
 10
-204.253627420962
 20
-260.1543310575495
 30
0.0
 40
2.0
210
0.0
220
0.0
230
-1.0
  0
CIRCLE
  5
91E
330
1F
100
AcDbEntity
  8
Costruzione
 62
     1
100
AcDbCircle
 10
204.253627420962
 20
-208.1543310575493
 30
0.0
 40
2.0
  0
CIRCLE
  5
91F
330
1F
100
AcDbEntity
  8
Costruzione
 62
     1
100
AcDbCircle
 10
161.753627420962
 20
-174.1543310575495
 30
0.0
 40
2.0
  0
CIRCLE
  5
920
330
1F
100
AcDbEntity
  8
Costruzione
 62
     1
100
AcDbCircle
 10
-156.753627420962
 20
-266.1543310575495
 30
0.0
 40
2.0
210
0.0
220
0.0
230
-1.0
  0
CIRCLE
  5
921
330
1F
100
AcDbEntity
  8
Costruzione
 62
     1
100
AcDbCircle
 10
156.753627420962
 20
-302.1543310575495
 30
0.0
 40
2.0
  0
LWPOLYLINE
  5
922
330
1F
100
AcDbEntity
  8
Costruzione
 62
     1
100
AcDbPolyline
 90
        4
 70
     1
 43
0.0
 10
151.753627420962
 20
-314.1543310575495
 10
151.753627420962
 20
-64.15433105754954
 10
281.7536274209621
 20
-64.15433105754954
 10
281.7536274209621
 20
-314.1543310575495
  0
LWPOLYLINE
  5
923
330
1F
100
AcDbEntity
  8
Costruzione
 62
     1
100
AcDbPolyline
 90
        4
 70
     1
 43
0.0
 10
161.753627420962
 20
-180.6543310575495
 10
181.753627420962
 20
-180.6543310575495
 42
-1.0
 10
181.753627420962
 20
-187.6543310575495
 10
161.753627420962
 20
-187.6543310575495
 42
-1.0
  0
LWPOLYLINE
  5
924
330
1F
100
AcDbEntity
  8
Costruzione
 62
     1
100
AcDbPolyline
 90
        4
 70
     1
 43
0.0
 10
251.7536274209621
 20
-180.6543310575495
 10
271.7536274209621
 20
-180.6543310575495
 42
-1.0
 10
271.7536274209621
 20
-187.6543310575495
 10
251.7536274209621
 20
-187.6543310575495
 42
-1.0
  0
LWPOLYLINE
  5
925
330
1F
100
AcDbEntity
  8
Costruzione
 62
     1
100
AcDbPolyline
 90
        4
 70
     1
 43
0.0
 10
157.753627420962
 20
-280.6543310575495
 10
177.753627420962
 20
-280.6543310575495
 42
-1.0
 10
177.753627420962
 20
-287.6543310575493
 10
157.753627420962
 20
-287.6543310575493
 42
-1.0
  0
LWPOLYLINE
  5
926
330
1F
100
AcDbEntity
  8
Costruzione
 62
     1
100
AcDbPolyline
 90
        4
 70
     1
 43
0.0
 10
255.7536274209621
 20
-280.6543310575495
 10
275.7536274209621
 20
-280.6543310575495
 42
-1.0
 10
275.7536274209621
 20
-287.6543310575495
 10
255.7536274209621
 20
-287.6543310575495
 42
-1.0
  0
LWPOLYLINE
  5
927
330
1F
100
AcDbEntity
  8
Costruzione
100
AcDbPolyline
 90
        2
 70
     0
 43
0.0
 10
204.253627420962
 20
-208.1543310575493
 10
229.253627420962
 20
-260.1543310575495
  0
LWPOLYLINE
  5
928
330
1F
100
AcDbEntity
  8
Costruzione
100
AcDbPolyline
 90
        4
 70
     0
 43
0.0
 10
68.05362742096201
 20
-208.1543310575493
 10
93.05362742096225
 20
-208.1543310575495
 10
68.05362742096201
 20
-260.1543310575495
 10
93.05362742096225
 20
-260.1543310575495
  0
CIRCLE
  5
94E
330
1F
100
AcDbEntity
  8
VISIBLE
100
AcDbCircle
 10
474.1536274209621
 20
-214.1543310575495
 30
0.0
 40
2.5
  0
CIRCLE
  5
950
330
1F
100
AcDbEntity
  8
VISIBLE
100
AcDbCircle
 10
-483.1536274209623
 20
-131.6543310575496
 30
0.0
 40
2.0
210
0.0
220
0.0
230
-1.0
  0
CIRCLE
  5
951
330
1F
100
AcDbEntity
  8
VISIBLE
100
AcDbCircle
 10
562.1536274209623
 20
-84.1543310575496
 30
0.0
 40
2.0
  0
CIRCLE
  5
952
330
1F
100
AcDbEntity
  8
VISIBLE
100
AcDbCircle
 10
-544.1536274209624
 20
-214.1543310575495
 30
0.0
 40
2.5
210
0.0
220
0.0
230
-1.0
  0
CIRCLE
  5
955
330
1F
100
AcDbEntity
  8
VISIBLE
100
AcDbCircle
 10
-526.1536274209624
 20
-84.1543310575496
 30
0.0
 40
2.0
210
0.0
220
0.0
230
-1.0
  0
CIRCLE
  5
958
330
1F
100
AcDbEntity
  8
VISIBLE
100
AcDbCircle
 10
-544.1536274209624
 20
-294.1543310575497
 30
0.0
 40
2.5
210
0.0
220
0.0
230
-1.0
  0
CIRCLE
  5
959
330
1F
100
AcDbEntity
  8
VISIBLE
100
AcDbCircle
 10
484.1536274209623
 20
-101.1543310575495
 30
0.0
 40
2.0
  0
CIRCLE
  5
95A
330
1F
100
AcDbEntity
  8
VISIBLE
100
AcDbCircle
 10
464.1536274209621
 20
-194.1543310575496
 30
0.0
 40
2.0
  0
CIRCLE
  5
95B
330
1F
100
AcDbEntity
  8
VISIBLE
100
AcDbCircle
 10
484.1536274209623
 20
-74.15433105754951
 30
0.0
 40
2.0
  0
CIRCLE
  5
95C
330
1F
100
AcDbEntity
  8
VISIBLE
100
AcDbCircle
 10
562.1536274209623
 20
-184.1543310575496
 30
0.0
 40
2.0
  0
CIRCLE
  5
95D
330
1F
100
AcDbEntity
  8
VISIBLE
100
AcDbCircle
 10
-526.1536274209624
 20
-184.1543310575496
 30
0.0
 40
2.0
210
0.0
220
0.0
230
-1.0
  0
CIRCLE
  5
95E
330
1F
100
AcDbEntity
  8
VISIBLE
100
AcDbCircle
 10
535.1536274209624
 20
-131.6543310575496
 30
0.0
 40
2.0
  0
CIRCLE
  5
95F
330
1F
100
AcDbEntity
  8
VISIBLE
100
AcDbCircle
 10
-535.1536274209624
 20
-156.6543310575495
 30
0.0
 40
2.0
210
0.0
220
0.0
230
-1.0
  0
CIRCLE
  5
960
330
1F
100
AcDbEntity
  8
VISIBLE
100
AcDbCircle
 10
483.1536274209623
 20
-156.6543310575494
 30
0.0
 40
2.0
  0
CIRCLE
  5
96F
330
1F
100
AcDbEntity
  8
VISIBLE
100
AcDbCircle
 10
464.1536274209621
 20
-167.1543310575496
 30
0.0
 40
2.0
  0
CIRCLE
  5
970
330
1F
100
AcDbEntity
  8
VISIBLE
100
AcDbCircle
 10
474.1536274209621
 20
-294.1543310575497
 30
0.0
 40
2.5
  0
LWPOLYLINE
  5
A81
330
1F
100
AcDbEntity
  8
tags
100
AcDbPolyline
 90
        3
 70
     0
 43
0.0
 10
80.55362742096201
 20
-314.1543310575495
 10
80.55362742096201
 20
-333.7120379005962
 10
80.55362742096201
 20
-298.5889462763532
  0
LWPOLYLINE
  5
A83
330
1F
100
AcDbEntity
  8
tags
100
AcDbPolyline
 90
        2
 70
     0
 43
0.0
 10
15.55362742096201
 20
-314.1543310575495
 10
32.05362742096202
 20
-314.1543310575495
  0
LWPOLYLINE
  5
A8D
330
1F
100
AcDbEntity
  8
tags
100
AcDbPolyline
 90
        2
 70
     0
 43
0.0
 10
-40.35779245531523
 20
-6.700677016093436
 10
4.450788345284649
 20
-6.700677016093436
  0
LWPOLYLINE
  5
A93
330
1F
100
AcDbEntity
  8
tags
100
AcDbPolyline
 90
        2
 70
     0
 43
0.0
 10
129.053627420962
 20
-314.1543310575495
 10
145.553627420962
 20
-314.1543310575495
  0
LWPOLYLINE
  5
A94
330
1F
100
AcDbEntity
  8
VISIBLE
100
AcDbPolyline
 90
        2
 70
     0
 43
0.0
 10
97.05362742096202
 20
-314.1543310575495
 10
64.05362742096201
 20
-314.1543310575495
  0
LWPOLYLINE
  5
A99
330
1F
100
AcDbEntity
  8
Costruzione
 62
     1
100
AcDbPolyline
 90
       21
 70
     1
 43
0.0
 10
32.05362742096202
 20
-64.15433105754954
 10
32.05362742096202
 20
-74.15433105754954
 10
64.05362742096201
 20
-74.15433105754954
 10
64.05362742096201
 20
-64.15433105754954
 10
97.05362742096202
 20
-64.15433105754954
 10
97.05362742096202
 20
-74.15433105754954
 10
129.053627420962
 20
-74.15433105754954
 10
129.053627420962
 20
-64.15433105754954
 10
145.553627420962
 20
-64.15433105754954
 10
145.553627420962
 20
-314.1543310575495
 10
129.053627420962
 20
-314.1543310575495
 10
129.053627420962
 20
-304.1543310575495
 10
97.05362742096202
 20
-304.1543310575495
 10
97.05362742096202
 20
-314.1543310575495
 10
80.55362742096201
 20
-314.1543310575495
 10
64.05362742096201
 20
-314.1543310575495
 10
64.05362742096201
 20
-304.1543310575495
 10
32.05362742096202
 20
-304.1543310575495
 10
32.05362742096202
 20
-314.1543310575495
 10
15.55362742096213
 20
-314.1543310575495
 10
15.55362742096213
 20
-64.15433105754954
  0
LWPOLYLINE
  5
A9A
330
1F
100
AcDbEntity
  8
tags
100
AcDbPolyline
 90
        3
 70
     0
 43
0.0
 10
80.55362742096201
 20
-64.15433105754948
 10
80.55362742096201
 20
-44.59662421450281
 10
80.55362742096201
 20
-79.7197158387458
  0
CIRCLE
  5
B2E
330
1F
100
AcDbEntity
  8
VISIBLE
100
AcDbCircle
 10
419.4536274209621
 20
-146.1543310575496
 30
0.0
 40
2.0
  0
CIRCLE
  5
B2F
330
1F
100
AcDbEntity
  8
VISIBLE
100
AcDbCircle
 10
412.9536274209621
 20
-114.1543310575496
 30
0.0
 40
3.0
  0
CIRCLE
  5
B30
330
1F
100
AcDbEntity
  8
VISIBLE
100
AcDbCircle
 10
375.4536274209621
 20
-188.1543310575496
 30
0.0
 40
2.0
  0
CIRCLE
  5
B31
330
1F
100
AcDbEntity
  8
VISIBLE
100
AcDbCircle
 10
-312.9536274209621
 20
-114.1543310575496
 30
0.0
 40
3.0
210
0.0
220
0.0
230
-1.0
  0
CIRCLE
  5
B32
330
1F
100
AcDbEntity
  8
VISIBLE
100
AcDbCircle
 10
-350.4536274209621
 20
-188.1543310575496
 30
0.0
 40
2.0
210
0.0
220
0.0
230
-1.0
  0
CIRCLE
  5
B33
330
1F
100
AcDbEntity
  8
VISIBLE
100
AcDbCircle
 10
350.4536274209621
 20
-240.1543310575496
 30
0.0
 40
2.0
  0
CIRCLE
  5
B34
330
1F
100
AcDbEntity
  8
VISIBLE
100
AcDbCircle
 10
-375.4536274209621
 20
-240.1543310575496
 30
0.0
 40
2.0
210
0.0
220
0.0
230
-1.0
  0
CIRCLE
  5
B35
330
1F
100
AcDbEntity
  8
VISIBLE
100
AcDbCircle
 10
390.9536274209621
 20
-254.1543310575497
 30
0.0
 40
2.0
  0
CIRCLE
  5
B36
330
1F
100
AcDbEntity
  8
VISIBLE
100
AcDbCircle
 10
417.953627420962
 20
-254.1543310575497
 30
0.0
 40
2.0
  0
CIRCLE
  5
B37
330
1F
100
AcDbEntity
  8
VISIBLE
100
AcDbCircle
 10
-412.9536274209621
 20
-314.1543310575496
 30
0.0
 40
3.0
210
0.0
220
0.0
230
-1.0
  0
CIRCLE
  5
B38
330
1F
100
AcDbEntity
  8
VISIBLE
100
AcDbCircle
 10
307.9536274209621
 20
-274.1543310575496
 30
0.0
 40
2.0
  0
CIRCLE
  5
B39
330
1F
100
AcDbEntity
  8
VISIBLE
100
AcDbCircle
 10
334.9536274209621
 20
-274.1543310575496
 30
0.0
 40
2.0
  0
CIRCLE
  5
B3A
330
1F
100
AcDbEntity
  8
VISIBLE
100
AcDbCircle
 10
-419.4536274209621
 20
-182.1543310575496
 30
0.0
 40
2.0
210
0.0
220
0.0
230
-1.0
  0
CIRCLE
  5
B3B
330
1F
100
AcDbEntity
  8
VISIBLE
100
AcDbCircle
 10
-306.4536274209621
 20
-146.1543310575496
 30
0.0
 40
2.0
210
0.0
220
0.0
230
-1.0
  0
CIRCLE
  5
B3C
330
1F
100
AcDbEntity
  8
VISIBLE
100
AcDbCircle
 10
306.4536274209621
 20
-182.1543310575496
 30
0.0
 40
2.0
  0
CIRCLE
  5
B3D
330
1F
100
AcDbEntity
  8
VISIBLE
100
AcDbCircle
 10
312.9536274209621
 20
-314.1543310575496
 30
0.0
 40
3.0
  0
LWPOLYLINE
  5
B3E
330
1F
100
AcDbEntity
  8
Costruzione
100
AcDbPolyline
 90
        2
 70
     0
 43
0.0
 10
375.4536274209621
 20
-188.1543310575495
 10
350.4536274209621
 20
-240.1543310575495
  0
CIRCLE
  5
B3F
330
1F
100
AcDbEntity
  8
VISIBLE
100
AcDbCircle
 10
307.9536274209621
 20
-254.1543310575496
 30
0.0
 40
2.0
  0
CIRCLE
  5
B40
330
1F
100
AcDbEntity
  8
VISIBLE
100
AcDbCircle
 10
334.9536274209621
 20
-254.1543310575496
 30
0.0
 40
2.0
  0
LWPOLYLINE
  5
B41
330
1F
100
AcDbEntity
  8
0
100
AcDbPolyline
 90
        5
 70
     0
 43
0.0
 10
415.9536274209621
 20
-267.6543310575496
 10
395.9536274209621
 20
-267.6543310575496
 42
-0.9999999999999753
 10
395.9536274209617
 20
-260.6543310575495
 10
415.9536274209621
 20
-260.6543310575495
 42
-0.9999999999999843
 10
415.9536274209621
 20
-267.6543310575496
 42
0.9999999999999682
  0
LWPOLYLINE
  5
B42
330
1F
100
AcDbEntity
  8
0
100
AcDbPolyline
 90
        5
 70
     0
 43
0.0
 10
415.9536274209621
 20
-167.6543310575495
 10
395.9536274209621
 20
-167.6543310575495
 42
-0.9999999999999753
 10
395.9536274209621
 20
-160.6543310575495
 10
415.9536274209621
 20
-160.6543310575495
 42
-0.9999999999999843
 10
415.9536274209621
 20
-167.6543310575495
 42
0.9999999999999682
  0
LWPOLYLINE
  5
B43
330
1F
100
AcDbEntity
  8
0
100
AcDbPolyline
 90
        5
 70
     0
 43
0.0
 10
329.9536274209621
 20
-167.6543310575495
 10
309.9536274209621
 20
-167.6543310575495
 42
-0.9999999999999753
 10
309.9536274209621
 20
-160.6543310575495
 10
329.9536274209621
 20
-160.6543310575495
 42
-0.9999999999999843
 10
329.9536274209621
 20
-167.6543310575495
 42
0.9999999999999682
  0
LWPOLYLINE
  5
B44
330
1F
100
AcDbEntity
  8
0
100
AcDbPolyline
 90
        5
 70
     0
 43
0.0
 10
329.9536274209621
 20
-267.6543310575496
 10
309.9536274209621
 20
-267.6543310575496
 42
-0.9999999999999753
 10
309.9536274209621
 20
-260.6543310575495
 10
329.9536274209621
 20
-260.6543310575495
 42
-0.9999999999999843
 10
329.9536274209621
 20
-267.6543310575496
 42
0.9999999999999682
  0
LWPOLYLINE
  5
B45
330
1F
100
AcDbEntity
  8
0
100
AcDbPolyline
 90
        4
 70
     1
 43
0.0
 10
437.9536274209621
 20
-64.15433105754954
 10
437.9536274209621
 20
-364.1543310575495
 10
287.9536274209621
 20
-364.1543310575495
 10
287.9536274209621
 20
-64.15433105754954
  0
LWPOLYLINE
  5
B48
330
1F
100
AcDbEntity
  8
0
100
AcDbPolyline
 90
        5
 70
     0
 43
0.0
 10
470.6536274209621
 20
-94.1543310575496
 10
470.6536274209621
 20
-74.1543310575496
 42
-0.9999999999999753
 10
477.6536274209621
 20
-74.1543310575496
 10
477.6536274209621
 20
-94.1543310575496
 42
-0.9999999999999843
 10
470.6536274209621
 20
-94.1543310575496
 42
0.9999999999999682
  0
LWPOLYLINE
  5
B49
330
1F
100
AcDbEntity
  8
0
100
AcDbPolyline
 90
        5
 70
     0
 43
0.0
 10
540.6536274209623
 20
-106.1543310575497
 10
540.6536274209623
 20
-86.15433105754968
 42
-0.9999999999999753
 10
547.6536274209624
 20
-86.15433105754968
 10
547.6536274209624
 20
-106.1543310575497
 42
-0.9999999999999843
 10
540.6536274209623
 20
-106.1543310575497
 42
0.9999999999999682
  0
LWPOLYLINE
  5
B4A
330
1F
100
AcDbEntity
  8
0
100
AcDbPolyline
 90
        5
 70
     0
 43
0.0
 10
540.6536274209623
 20
-182.1543310575495
 10
540.6536274209623
 20
-162.1543310575495
 42
-0.9999999999999753
 10
547.6536274209624
 20
-162.1543310575495
 10
547.6536274209624
 20
-182.1543310575495
 42
-0.9999999999999843
 10
540.6536274209623
 20
-182.1543310575495
 42
0.9999999999999682
  0
LWPOLYLINE
  5
B4B
330
1F
100
AcDbEntity
  8
0
100
AcDbPolyline
 90
        5
 70
     0
 43
0.0
 10
470.6536274209621
 20
-194.1543310575496
 10
470.6536274209621
 20
-174.1543310575496
 42
-0.9999999999999753
 10
477.6536274209621
 20
-174.1543310575496
 10
477.6536274209621
 20
-194.1543310575496
 42
-0.9999999999999843
 10
470.6536274209621
 20
-194.1543310575496
 42
0.9999999999999682
  0
LWPOLYLINE
  5
B4C
330
1F
100
AcDbEntity
  8
0
100
AcDbPolyline
 90
        4
 70
     1
 43
0.0
 10
444.1536274209621
 20
-64.15433105754954
 10
574.1536274209623
 20
-64.15433105754954
 10
574.1536274209623
 20
-314.1543310575495
 10
444.1536274209621
 20
-314.1543310575495
  0
MTEXT
  5
C05
330
1F
100
AcDbEntity
  8
0
100
AcDbMText
 10
242.4812111986999
 20
135.0966005610753
 30
0.0
 40
40.0
 41
242.0130531709892
 71
     1
 72
     5
  1
{\fVerdana|b0|i0|c0|p34;\H0.9x;ParduBot}
 73
     1
 44
1.0
  0
LWPOLYLINE
  5
C09
330
1F
100
AcDbEntity
  8
check
100
AcDbPolyline
 90
        8
 70
     1
 43
0.0
 10
480.293118172072
 20
333.6872913268406
 10
480.293118172072
 20
295.6872913268406
 42
-0.4142135623730951
 10
478.2931181720719
 20
293.6872913268406
 10
440.2931181720719
 20
293.6872913268406
 42
-0.4142135623730951
 10
438.293118172072
 20
295.6872913268406
 10
438.293118172072
 20
333.6872913268406
 42
-0.4142135623730951
 10
440.2931181720719
 20
335.6872913268406
 10
478.2931181720719
 20
335.6872913268406
 42
-0.4142135623730951
  0
LWPOLYLINE
  5
C0A
330
1F
100
AcDbEntity
  8
check
100
AcDbPolyline
 90
        8
 70
     1
 43
0.0
 10
730.293118172072
 20
124.6872913268407
 10
730.293118172072
 20
86.68729132684076
 42
-0.4142135623730951
 10
728.2931181720719
 20
84.68729132684075
 10
690.2931181720719
 20
84.68729132684075
 42
-0.4142135623730951
 10
688.293118172072
 20
86.68729132684076
 10
688.293118172072
 20
124.6872913268407
 42
-0.4142135623730951
 10
690.2931181720719
 20
126.6872913268407
 10
728.2931181720719
 20
126.6872913268407
 42
-0.4142135623730951
  0
LWPOLYLINE
  5
C50
330
1F
100
AcDbEntity
  8
0
100
AcDbPolyline
 90
        6
 70
     0
 43
0.0
 10
418.6562370266045
 20
62.47951694256238
 10
778.6562370266046
 20
62.47951694256238
 10
778.6562370266046
 20
2.479516942562383
 10
418.6562370266045
 20
2.479516942562383
 10
418.6562370266045
 20
62.47951694256238
 10
418.6562370266045
 20
2.479516942562383
  0
LWPOLYLINE
  5
C54
330
1F
100
AcDbEntity
  8
0
100
AcDbPolyline
 90
        2
 70
     0
 43
0.0
 10
412.4562370266045
 20
32.47951694256239
 10
418.6562370266045
 20
32.47951694256239
  0
LWPOLYLINE
  5
C8B
330
1F
100
AcDbEntity
  8
0
100
AcDbPolyline
 90
       12
 70
     1
 43
0.0
 10
460.5977859695646
 20
-405.0959511368014
 10
450.5977859695645
 20
-405.0959511368014
 10
450.5977859695645
 20
-365.0959511368014
 10
460.5977859695646
 20
-365.0959511368014
 10
460.5977859695646
 20
-335.0959511368014
 10
840.5977859695646
 20
-335.0959511368014
 10
840.5977859695646
 20
-365.0959511368014
 10
850.5977859695645
 20
-365.0959511368014
 10
850.5977859695645
 20
-405.0959511368014
 10
840.5977859695646
 20
-405.0959511368014
 10
840.5977859695646
 20
-435.0959511368014
 10
460.5977859695646
 20
-435.0959511368014
  0
CIRCLE
  5
CF8
330
1F
100
AcDbEntity
  8
VISIBLE
100
AcDbCircle
 10
272.4562370266051
 20
44.48729132684028
 30
0.0000000000002274
 40
4.0
  0
CIRCLE
  5
CF9
330
1F
100
AcDbEntity
  8
VISIBLE
100
AcDbCircle
 10
172.4562370266051
 20
44.48729132684028
 30
0.0000000000002274
 40
4.0
  0
CIRCLE
  5
CFA
330
1F
100
AcDbEntity
  8
VISIBLE
100
AcDbCircle
 10
222.4562370266051
 20
44.48729132684028
 30
0.0000000000002274
 40
11.0
  0
LWPOLYLINE
  5
CFB
330
1F
100
AcDbEntity
  8
VISIBLE
 62
     5
100
AcDbPolyline
 90
       12
 70
     1
 43
0.0
 10
42.45623702660509
 20
18.48729132684033
 10
32.45623702660476
 20
18.48729132684033
 10
32.45623702660476
 20
53.48729132684034
 10
42.45623702660475
 20
53.48729132684034
 10
42.45623702660475
 20
63.48729132684034
 10
402.4562370266043
 20
63.48729132684034
 10
402.4562370266047
 20
53.48729132684034
 10
412.4562370266047
 20
53.48729132684034
 10
412.4562370266047
 20
18.48729132684033
 10
402.4562370266051
 20
18.48729132684033
 10
402.4562370266051
 20
8.487291326840278
 10
42.45623702660509
 20
8.487291326840278
  0
LWPOLYLINE
  5
CFD
330
1F
100
AcDbEntity
  8
check
 62
     3
100
AcDbPolyline
 90
        4
 70
     1
 43
0.0
 10
0.0
 20
0.0
 10
750.0
 20
0.0
 10
750.0
 20
450.0
 10
0.0
 20
450.0
  0
ENDSEC
  0
SECTION
  2
OBJECTS
  0
DICTIONARY
  5
C
330
0
100
AcDbDictionary
281
     1
  3
ACAD_COLOR
350
46A
  3
ACAD_DETAILVIEWSTYLE
350
B5
  3
ACAD_GROUP
350
D
  3
ACAD_IMAGE_VARS
350
6A
  3
ACAD_LAYOUT
350
1A
  3
ACAD_MATERIAL
350
72
  3
ACAD_MLEADERSTYLE
350
3F
  3
ACAD_MLINESTYLE
350
17
  3
ACAD_PLOTSETTINGS
350
19
  3
ACAD_PLOTSTYLENAME
350
E
  3
ACAD_SCALELIST
350
40
  3
ACAD_SECTIONVIEWSTYLE
350
B6
  3
ACAD_TABLESTYLE
350
3B
  3
ACDB_RECOMPOSE_DATA
350
468
  3
AcDbVariableDictionary
350
3D
  3
APPDATA
350
71
  0
DICTIONARY
  5
813
330
2
100
AcDbDictionary
280
     1
281
     1
  3
ACAD_LAYERFILTERS
360
8E3
  3
ACAD_LAYERSTATES
360
814
  0
DICTIONARY
  5
805
330
804
100
AcDbDictionary
280
     1
281
     1
  3
ADSK_XREC_LAYER_RECONCILED
360
806
  0
DICTIONARY
  5
808
330
807
100
AcDbDictionary
280
     1
281
     1
  3
ADSK_XREC_LAYER_RECONCILED
360
809
  0
DICTIONARY
  5
80B
330
80A
100
AcDbDictionary
280
     1
281
     1
  3
ADSK_XREC_LAYER_RECONCILED
360
80C
  0
DICTIONARY
  5
80E
330
80D
100
AcDbDictionary
280
     1
281
     1
  3
ADSK_XREC_LAYER_RECONCILED
360
80F
  0
DICTIONARY
  5
5D7
330
1F
100
AcDbDictionary
280
     1
281
     1
  3
ACAD_SORTENTS
360
5D8
  0
DICTIONARY
  5
46A
102
{ACAD_REACTORS
330
C
102
}
330
C
100
AcDbDictionary
281
     1
  0
DICTIONARY
  5
B5
102
{ACAD_REACTORS
330
C
102
}
330
C
100
AcDbDictionary
281
     1
  0
DICTIONARY
  5
D
102
{ACAD_REACTORS
330
C
102
}
330
C
100
AcDbDictionary
281
     1
  0
RASTERVARIABLES
  5
6A
102
{ACAD_REACTORS
330
C
102
}
330
C
100
AcDbRasterVariables
 90
        0
 70
     1
 71
     1
 72
     1
  0
DICTIONARY
  5
1A
102
{ACAD_REACTORS
330
C
102
}
330
C
100
AcDbDictionary
281
     1
  3
Model
350
22
  3
Sheet1
350
1E
  3
Sheet2
350
26
  0
DICTIONARY
  5
72
102
{ACAD_REACTORS
330
C
102
}
330
C
100
AcDbDictionary
281
     1
  3
ByBlock
350
74
  3
ByLayer
350
73
  3
Global
350
75
  0
DICTIONARY
  5
3F
102
{ACAD_REACTORS
330
C
102
}
330
C
100
AcDbDictionary
281
     1
  3
Standard
350
B7
  0
DICTIONARY
  5
17
102
{ACAD_REACTORS
330
C
102
}
330
C
100
AcDbDictionary
281
     1
  3
Standard
350
18
  0
DICTIONARY
  5
19
102
{ACAD_REACTORS
330
C
102
}
330
C
100
AcDbDictionary
281
     1
  0
ACDBDICTIONARYWDFLT
  5
E
102
{ACAD_REACTORS
330
C
102
}
330
C
100
AcDbDictionary
281
     1
  3
Normal
350
F
100
AcDbDictionaryWithDefault
340
F
  0
DICTIONARY
  5
40
102
{ACAD_REACTORS
330
C
102
}
330
C
100
AcDbDictionary
281
     1
  3
A0
350
41
  3
A1
350
42
  3
A2
350
43
  3
A3
350
44
  3
A4
350
45
  3
A5
350
46
  3
A6
350
47
  3
A7
350
48
  3
A8
350
49
  3
A9
350
4A
  3
B0
350
4B
  3
B1
350
4C
  3
B2
350
4D
  3
B3
350
4E
  3
B4
350
4F
  3
B5
350
50
  3
B6
350
51
  3
B7
350
52
  3
B8
350
53
  3
B9
350
54
  3
C0
350
55
  3
C1
350
56
  3
C2
350
57
  3
C3
350
58
  3
C4
350
59
  3
C5
350
5A
  3
C6
350
5B
  3
C7
350
5C
  3
C8
350
5D
  3
C9
350
5E
  3
D0
350
5F
  3
D1
350
60
  3
D2
350
61
  0
DICTIONARY
  5
B6
102
{ACAD_REACTORS
330
C
102
}
330
C
100
AcDbDictionary
281
     1
  0
DICTIONARY
  5
3B
102
{ACAD_REACTORS
330
C
102
}
330
C
100
AcDbDictionary
281
     1
  3
Standard
350
3C
  0
XRECORD
  5
468
102
{ACAD_REACTORS
330
C
102
}
330
C
100
AcDbXrecord
280
     1
 90
        1
330
3C
  0
DICTIONARY
  5
3D
102
{ACAD_REACTORS
330
C
102
}
330
C
100
AcDbDictionary
281
     1
  3
CANNOSCALE
350
62
  3
CMLEADERSTYLE
350
10C
  3
CTABLESTYLE
350
3E
  3
LIGHTSINBLOCKS
350
6F
  3
XCLIPFRAME
350
70
  0
DICTIONARY
  5
71
102
{ACAD_REACTORS
330
C
102
}
330
C
100
AcDbDictionary
281
     1
  0
DICTIONARY
  5
8E3
102
{ACAD_REACTORS
330
813
102
}
330
813
100
AcDbDictionary
281
     1
  0
DICTIONARY
  5
814
102
{ACAD_REACTORS
330
813
102
}
330
813
100
AcDbDictionary
281
     1
  0
XRECORD
  5
806
102
{ACAD_REACTORS
330
805
102
}
330
805
100
AcDbXrecord
280
     1
290
     1
  0
XRECORD
  5
809
102
{ACAD_REACTORS
330
808
102
}
330
808
100
AcDbXrecord
280
     1
290
     1
  0
XRECORD
  5
80C
102
{ACAD_REACTORS
330
80B
102
}
330
80B
100
AcDbXrecord
280
     1
290
     1
  0
XRECORD
  5
80F
102
{ACAD_REACTORS
330
80E
102
}
330
80E
100
AcDbXrecord
280
     1
290
     1
  0
SORTENTSTABLE
  5
5D8
102
{ACAD_REACTORS
330
5D7
102
}
330
5D7
100
AcDbSortentsTable
330
1F
331
420
  5
41D
331
381
  5
37E
331
545
  5
49B
331
24A
  5
245
331
54D
  5
54A
331
401
  5
3B4
331
555
  5
552
331
36A
  5
367
331
16B
  5
16B
331
409
  5
406
331
480
  5
475
331
55D
  5
55A
331
565
  5
562
331
411
  5
40E
331
372
  5
36F
331
419
  5
416
331
37A
  5
377
331
421
  5
41E
331
382
  5
37F
331
233
  5
1E5
331
546
  5
49C
331
54E
  5
54B
331
402
  5
3B5
331
556
  5
553
331
40A
  5
407
331
36B
  5
368
331
55E
  5
55B
331
566
  5
563
331
412
  5
40F
331
373
  5
370
331
37B
  5
378
331
41A
  5
417
331
499
  5
48D
331
422
  5
41F
331
234
  5
1E6
331
383
  5
380
331
547
  5
544
331
F5
  5
F5
331
3B3
  5
386
331
472
  5
456
331
54F
  5
54C
331
364
  5
246
331
403
  5
3B6
331
557
  5
554
331
36C
  5
369
331
40B
  5
408
331
482
  5
47F
331
55F
  5
55C
331
413
  5
410
331
1A5
  5
59E
331
374
  5
371
331
492
  5
48B
331
41B
  5
418
331
37C
  5
379
331
423
  5
420
331
384
  5
381
331
235
  5
22F
331
F6
  5
F6
331
245
  5
237
331
548
  5
545
331
3B4
  5
387
331
550
  5
54D
331
404
  5
401
331
365
  5
249
331
558
  5
555
331
40C
  5
409
331
16E
  5
16E
331
560
  5
55D
331
375
  5
372
331
1A6
  5
59F
331
414
  5
411
331
568
  5
564
331
49B
  5
492
331
37D
  5
37A
331
41C
  5
419
331
424
  5
421
331
236
  5
233
331
385
  5
382
331
549
  5
546
331
246
  5
238
331
551
  5
54E
331
3B5
  5
388
331
559
  5
556
331
366
  5
24A
331
405
  5
402
331
561
  5
55E
331
36E
  5
36B
331
40D
  5
40A
331
569
  5
565
331
415
  5
412
331
376
  5
373
331
49C
  5
497
331
41D
  5
41A
331
37E
  5
37B
331
22F
  5
1E3
331
386
  5
383
331
237
  5
234
331
54A
  5
547
331
F8
  5
F8
331
475
  5
462
331
552
  5
54F
331
3B6
  5
3B3
331
55A
  5
557
331
406
  5
403
331
367
  5
364
331
562
  5
55F
331
40E
  5
40B
331
36F
  5
36C
331
485
  5
482
331
1A0
  5
59D
331
377
  5
374
331
416
  5
413
331
37F
  5
37C
331
41E
  5
41B
331
238
  5
235
331
387
  5
384
331
54B
  5
548
331
553
  5
550
331
368
  5
365
331
407
  5
404
331
47E
  5
472
331
55B
  5
558
331
40F
  5
40C
331
563
  5
560
331
370
  5
36D
331
378
  5
375
331
417
  5
414
331
41F
  5
41C
331
380
  5
37D
331
239
  5
236
331
388
  5
385
331
249
  5
239
331
54C
  5
549
331
554
  5
551
331
408
  5
405
331
16A
  5
16A
331
369
  5
366
331
55C
  5
559
331
564
  5
561
331
410
  5
40D
331
371
  5
36E
331
379
  5
376
331
418
  5
415
331
497
  5
48C
  0
LAYOUT
  5
22
102
{ACAD_REACTORS
330
1A
102
}
330
1A
100
AcDbPlotSettings
  1

  2
none_device
  4
ISO_A3_(420.00_x_297.00_MM)
  6

 40
7.5
 41
20.0
 42
7.5
 43
20.0
 44
420.0
 45
297.0
 46
20.78282828282826
 47
0.0
 48
0.0
 49
0.0
140
0.0
141
0.0
142
1.0
143
1.155642023346302
 70
  1204
 72
     1
 73
     0
 74
     1
  7
monochrome.ctb
 75
     0
147
0.8653198653198654
 76
     0
 77
     2
 78
   300
148
-134.1869158878504
149
0.0
100
AcDbLayout
  1
Model
 70
     1
 71
     0
 10
0.0
 20
0.0
 11
420.0
 21
297.0
 12
0.0
 22
0.0
 32
0.0
 14
-591.1467735044417
 24
-509.0153518184538
 34
-311.9999999999999
 15
783.1213362170807
 25
552.7217348160283
 35
8.0
146
0.0
 13
0.0
 23
0.0
 33
0.0
 16
1.0
 26
0.0
 36
0.0
 17
0.0
 27
1.0
 37
0.0
 76
     0
330
1F
  0
LAYOUT
  5
1E
102
{ACAD_REACTORS
330
1A
102
}
330
1A
100
AcDbPlotSettings
  1

  2
none_device
  4

  6

 40
0.0
 41
0.0
 42
0.0
 43
0.0
 44
0.0
 45
0.0
 46
0.0
 47
0.0
 48
0.0
 49
0.0
140
0.0
141
0.0
142
1.0
143
1.0
 70
   688
 72
     0
 73
     0
 74
     5
  7

 75
    16
147
1.0
 76
     0
 77
     2
 78
   300
148
0.0
149
0.0
100
AcDbLayout
  1
Sheet1
 70
     1
 71
     1
 10
0.0
 20
0.0
 11
420.0
 21
297.0
 12
0.0
 22
0.0
 32
0.0
 14
1.000000000000000E+20
 24
1.000000000000000E+20
 34
1.000000000000000E+20
 15
-1.000000000000000E+20
 25
-1.000000000000000E+20
 35
-1.000000000000000E+20
146
0.0
 13
0.0
 23
0.0
 33
0.0
 16
1.0
 26
0.0
 36
0.0
 17
0.0
 27
1.0
 37
0.0
 76
     0
330
1B
  0
LAYOUT
  5
26
102
{ACAD_REACTORS
330
1A
102
}
330
1A
100
AcDbPlotSettings
  1

  2
none_device
  4

  6

 40
0.0
 41
0.0
 42
0.0
 43
0.0
 44
0.0
 45
0.0
 46
0.0
 47
0.0
 48
0.0
 49
0.0
140
0.0
141
0.0
142
1.0
143
1.0
 70
   688
 72
     0
 73
     0
 74
     5
  7

 75
    16
147
1.0
 76
     0
 77
     2
 78
   300
148
0.0
149
0.0
100
AcDbLayout
  1
Sheet2
 70
     1
 71
     2
 10
0.0
 20
0.0
 11
0.0
 21
0.0
 12
0.0
 22
0.0
 32
0.0
 14
0.0
 24
0.0
 34
0.0
 15
0.0
 25
0.0
 35
0.0
146
0.0
 13
0.0
 23
0.0
 33
0.0
 16
1.0
 26
0.0
 36
0.0
 17
0.0
 27
1.0
 37
0.0
 76
     0
330
23
  0
MATERIAL
  5
74
330
72
100
AcDbMaterial
  1
ByBlock
  0
MATERIAL
  5
73
330
72
100
AcDbMaterial
  1
ByLayer
  0
MATERIAL
  5
75
330
72
100
AcDbMaterial
  1
Global
  0
ACAD_PROXY_OBJECT
  5
B7
102
{ACAD_REACTORS
330
3F
102
}
330
3F
100
AcDbProxyObject
 90
      499
 91
      509
 95
       25
 70
     0
 93
      736
310
40901902A40600000030400FEFFFFFF8000000000000008100000000000008101085374616E6461726400000000000004102405064068000000C1000000000000000410000000000000004102000000304015D900000000000000E4000
340
14
340
0
340
11
340
0
 94
        0
1001
ACAD_MLEADERVER
1070
     2
  0
MLINESTYLE
  5
18
102
{ACAD_REACTORS
330
17
102
}
330
17
100
AcDbMlineStyle
  2
STANDARD
 70
     0
  3

 62
   256
 51
90.0
 52
90.0
 71
     2
 49
0.5
 62
   256
  6
BYLAYER
 49
-0.5
 62
   256
  6
BYLAYER
  0
ACDBPLACEHOLDER
  5
F
102
{ACAD_REACTORS
330
E
102
}
330
E
  0
ACAD_PROXY_OBJECT
  5
41
102
{ACAD_REACTORS
330
40
102
}
330
40
100
AcDbProxyObject
 90
      499
 91
      504
 95
       25
 70
     0
 93
       41
310
903313A315D0
 94
        0
  0
ACAD_PROXY_OBJECT
  5
42
102
{ACAD_REACTORS
330
40
102
}
330
40
100
AcDbProxyObject
 90
      499
 91
      504
 95
       25
 70
     0
 93
      105
310
903313A324000000000000004000
 94
        0
  0
ACAD_PROXY_OBJECT
  5
43
102
{ACAD_REACTORS
330
40
102
}
330
40
100
AcDbProxyObject
 90
      499
 91
      504
 95
       25
 70
     0
 93
      105
310
903313A34400000000000010407A
 94
        0
  0
ACAD_PROXY_OBJECT
  5
44
102
{ACAD_REACTORS
330
40
102
}
330
40
100
AcDbProxyObject
 90
      499
 91
      504
 95
       25
 70
     0
 93
      105
310
903313A354000000000000144000
 94
        0
  0
ACAD_PROXY_OBJECT
  5
45
102
{ACAD_REACTORS
330
40
102
}
330
40
100
AcDbProxyObject
 90
      499
 91
      504
 95
       25
 70
     0
 93
      105
310
903313A384000000000000204000
 94
        0
  0
ACAD_PROXY_OBJECT
  5
46
102
{ACAD_REACTORS
330
40
102
}
330
40
100
AcDbProxyObject
 90
      499
 91
      504
 95
       25
 70
     0
 93
      113
310
904313A31304000000000000244000
 94
        0
  0
ACAD_PROXY_OBJECT
  5
47
102
{ACAD_REACTORS
330
40
102
}
330
40
100
AcDbProxyObject
 90
      499
 91
      504
 95
       25
 70
     0
 93
      113
310
904313A31364000000000000304000
 94
        0
  0
ACAD_PROXY_OBJECT
  5
48
102
{ACAD_REACTORS
330
40
102
}
330
40
100
AcDbProxyObject
 90
      499
 91
      504
 95
       25
 70
     0
 93
      113
310
904313A32304000000000000344000
 94
        0
  0
ACAD_PROXY_OBJECT
  5
49
102
{ACAD_REACTORS
330
40
102
}
330
40
100
AcDbProxyObject
 90
      499
 91
      504
 95
       25
 70
     0
 93
      113
310
904313A333040000000000003E4000
 94
        0
  0
ACAD_PROXY_OBJECT
  5
4A
102
{ACAD_REACTORS
330
40
102
}
330
40
100
AcDbProxyObject
 90
      499
 91
      504
 95
       25
 70
     0
 93
      113
310
904313A34304000000000000444000
 94
        0
  0
ACAD_PROXY_OBJECT
  5
4B
102
{ACAD_REACTORS
330
40
102
}
330
40
100
AcDbProxyObject
 90
      499
 91
      504
 95
       25
 70
     0
 93
      113
310
904313A35304000000000000494000
 94
        0
  0
ACAD_PROXY_OBJECT
  5
4C
102
{ACAD_REACTORS
330
40
102
}
330
40
100
AcDbProxyObject
 90
      499
 91
      504
 95
       25
 70
     0
 93
      121
310
905313A3130304000000000000594000
 94
        0
  0
ACAD_PROXY_OBJECT
  5
4D
102
{ACAD_REACTORS
330
40
102
}
330
40
100
AcDbProxyObject
 90
      499
 91
      504
 95
       25
 70
     0
 93
      105
310
903323A310000000000000010140
 94
        0
  0
ACAD_PROXY_OBJECT
  5
4E
102
{ACAD_REACTORS
330
40
102
}
330
40
100
AcDbProxyObject
 90
      499
 91
      504
 95
       25
 70
     0
 93
      105
310
903343A310000000000000410159
 94
        0
  0
ACAD_PROXY_OBJECT
  5
4F
102
{ACAD_REACTORS
330
40
102
}
330
40
100
AcDbProxyObject
 90
      499
 91
      504
 95
       25
 70
     0
 93
      105
310
903383A310000000000000810140
 94
        0
  0
ACAD_PROXY_OBJECT
  5
50
102
{ACAD_REACTORS
330
40
102
}
330
40
100
AcDbProxyObject
 90
      499
 91
      504
 95
       25
 70
     0
 93
      113
310
90431303A310000000000000910140
 94
        0
  0
ACAD_PROXY_OBJECT
  5
51
102
{ACAD_REACTORS
330
40
102
}
330
40
100
AcDbProxyObject
 90
      499
 91
      504
 95
       25
 70
     0
 93
      121
310
9053130303A310000000000001650100
 94
        0
  0
ACAD_PROXY_OBJECT
  5
52
102
{ACAD_REACTORS
330
40
102
}
330
40
100
AcDbProxyObject
 90
      499
 91
      504
 95
       25
 70
     0
 93
      257
310
90E312F31323822203D2031272D3022000000000000200FC000000000000284000
 94
        0
  0
ACAD_PROXY_OBJECT
  5
53
102
{ACAD_REACTORS
330
40
102
}
330
40
100
AcDbProxyObject
 90
      499
 91
      504
 95
       25
 70
     0
 93
      249
310
90D312F363422203D2031272D3022000000000000240FC000000000000284000
 94
        0
  0
ACAD_PROXY_OBJECT
  5
54
102
{ACAD_REACTORS
330
40
102
}
330
40
100
AcDbProxyObject
 90
      499
 91
      504
 95
       25
 70
     0
 93
      249
310
90D312F333222203D2031272D3022000000000000280FC000000000000284040
 94
        0
  0
ACAD_PROXY_OBJECT
  5
55
102
{ACAD_REACTORS
330
40
102
}
330
40
100
AcDbProxyObject
 90
      499
 91
      504
 95
       25
 70
     0
 93
      249
310
90D312F313622203D2031272D30220000000000002C0FC000000000000284000
 94
        0
  0
ACAD_PROXY_OBJECT
  5
56
102
{ACAD_REACTORS
330
40
102
}
330
40
100
AcDbProxyObject
 90
      499
 91
      504
 95
       25
 70
     0
 93
      249
310
90D332F333222203D2031272D30220000000000002E0FC000000000000284040
 94
        0
  0
ACAD_PROXY_OBJECT
  5
57
102
{ACAD_REACTORS
330
40
102
}
330
40
100
AcDbProxyObject
 90
      499
 91
      504
 95
       25
 70
     0
 93
      241
310
90C312F3822203D2031272D3022000000000000300FC000000000000284040
 94
        0
  0
ACAD_PROXY_OBJECT
  5
58
102
{ACAD_REACTORS
330
40
102
}
330
40
100
AcDbProxyObject
 90
      499
 91
      504
 95
       25
 70
     0
 93
      249
310
90D332F313622203D2031272D3022000000000000320FC000000000000284040
 94
        0
  0
ACAD_PROXY_OBJECT
  5
59
102
{ACAD_REACTORS
330
40
102
}
330
40
100
AcDbProxyObject
 90
      499
 91
      504
 95
       25
 70
     0
 93
      241
310
90C312F3422203D2031272D3022000000000000340FC000000000000284040
 94
        0
  0
ACAD_PROXY_OBJECT
  5
5A
102
{ACAD_REACTORS
330
40
102
}
330
40
100
AcDbProxyObject
 90
      499
 91
      504
 95
       25
 70
     0
 93
      241
310
90C332F3822203D2031272D3022000000000000360FC000000000000284040
 94
        0
  0
ACAD_PROXY_OBJECT
  5
5B
102
{ACAD_REACTORS
330
40
102
}
330
40
100
AcDbProxyObject
 90
      499
 91
      504
 95
       25
 70
     0
 93
      241
310
90C312F3222203D2031272D3022000000000000380FC000000000000284040
 94
        0
  0
ACAD_PROXY_OBJECT
  5
5C
102
{ACAD_REACTORS
330
40
102
}
330
40
100
AcDbProxyObject
 90
      499
 91
      504
 95
       25
 70
     0
 93
      241
310
90C332F3422203D2031272D30220000000000003A0FC000000000000284040
 94
        0
  0
ACAD_PROXY_OBJECT
  5
5D
102
{ACAD_REACTORS
330
40
102
}
330
40
100
AcDbProxyObject
 90
      499
 91
      504
 95
       25
 70
     0
 93
      161
310
90A3122203D2031272D30224000000000000284000
 94
        0
  0
ACAD_PROXY_OBJECT
  5
5E
102
{ACAD_REACTORS
330
40
102
}
330
40
100
AcDbProxyObject
 90
      499
 91
      504
 95
       25
 70
     0
 93
      257
310
90E312D312F3222203D2031272D30220000000000003E0FC000000000000284000
 94
        0
  0
ACAD_PROXY_OBJECT
  5
5F
102
{ACAD_REACTORS
330
40
102
}
330
40
100
AcDbProxyObject
 90
      499
 91
      504
 95
       25
 70
     0
 93
      225
310
90A3322203D2031272D302200000000000002100000000000000284028
 94
        0
  0
ACAD_PROXY_OBJECT
  5
60
102
{ACAD_REACTORS
330
40
102
}
330
40
100
AcDbProxyObject
 90
      499
 91
      504
 95
       25
 70
     0
 93
      225
310
90A3622203D2031272D302200000000000006100000000000000284000
 94
        0
  0
ACAD_PROXY_OBJECT
  5
61
102
{ACAD_REACTORS
330
40
102
}
330
40
100
AcDbProxyObject
 90
      499
 91
      504
 95
       25
 70
     0
 93
      249
310
90D31272D3022203D2031272D30220000000000000A100000000000000284000
 94
        0
  0
ACAD_PROXY_OBJECT
  5
3C
102
{ACAD_XDICTIONARY
360
464
102
}
102
{ACAD_REACTORS
330
3B
102
}
330
3B
100
AcDbProxyObject
 90
      499
 91
      502
 95
       25
 70
     0
 93
     1841
310
4214DD185B99185C9928000000000000F83F0000000000003E0FC00000000000004901028000000C1008000000C8001FDFF8000000C1003FBFF000000182007F7FE00000030400FEFFC00000060801FDFF8000000C1003FBFF000000182000000000000000C2020B00000018201000000190003FBFF000000182007F7FE000
310
00030400FEFFC00000060801FDFF8000000C1003FBFF000000182007F7FE00000030400000000000000124041600000030402000000320007F7FE00000030400FEFFC00000060801FDFF8000000C1003FBFF000000182007F7FE00000030400FEFFC000000608000
340
11
340
11
340
11
 94
        0
  0
DICTIONARYVAR
  5
62
102
{ACAD_REACTORS
330
3D
102
}
330
3D
100
DictionaryVariables
280
     0
  1
1:1
  0
DICTIONARYVAR
  5
10C
102
{ACAD_REACTORS
330
3D
102
}
330
3D
100
DictionaryVariables
280
     0
  1
Standard
  0
DICTIONARYVAR
  5
3E
102
{ACAD_REACTORS
330
3D
102
}
330
3D
100
DictionaryVariables
280
     0
  1
Standard
  0
DICTIONARYVAR
  5
6F
102
{ACAD_REACTORS
330
3D
102
}
330
3D
100
DictionaryVariables
280
     0
  1
0
  0
DICTIONARYVAR
  5
70
102
{ACAD_REACTORS
330
3D
102
}
330
3D
100
DictionaryVariables
280
     0
  1
0
  0
DICTIONARY
  5
464
330
3C
100
AcDbDictionary
280
     1
281
     1
  3
ACAD_ROUNDTRIP_2008_TABLESTYLE_CELLSTYLEMAP
360
466
  3
ACAD_XREC_ROUNDTRIP
360
465
  0
ACAD_PROXY_OBJECT
  5
466
102
{ACAD_REACTORS
330
464
102
}
330
464
100
AcDbProxyObject
 90
      499
 91
      505
 95
       25
 70
     0
 93
     5280
310
40D05406A0000003200101A000080002A5028000000C10000000000000004901010000000000003E0FC000000000000F83F0000000000003E0FC000000000000F83F02B5E8DC0F42B1CFC0AD7A3703D0AC73F419019018000000C1003FBFFFFFE02B5E8DC0F42A9CFD029018000000C1003FBFFFFFE02B5E8DC0F42A9CFD04
310
9018000000C1003FBFFFFFE02B5E8DC0F42A9CFD089018000000C1003FBFFFFFE02B5E8DC0F42A9CFD109018000000C1003FBFFFFFE02B5E8DC0F42A9CFD209018000000C1003FBFFFFFE02B5E8DC0F42A9CFD03409055F44415441415018008000008000000C800406800020000A941600000030400000000000000184040
310
4000000000000F83F0000000000003E0FC000000000000F83F0000000000003E0FC0AD7A3703D0AC73F02B5E8DC0F42B1CFD0640640600000030400FEFFFFFF80AD7A3703D0AA73F40A40600000030400FEFFFFFF80AD7A3703D0AA73F41240600000030400FEFFFFFF80AD7A3703D0AA73F42240600000030400FEFFFFFF8
310
0AD7A3703D0AA73F44240600000030400FEFFFFFF80AD7A3703D0AA73F48240600000030400FEFFFFFF80AD7A3703D0AA73F405014197D512551311505406A0000003200101A000080002A5058000000C10000000000000004901010000000000003E0FC000000000000F83F0000000000003E0FC000000000000F83F02B5E
310
8DC0F42B1CFC0AD7A3703D0AC73F419019018000000C1003FBFFFFFE02B5E8DC0F42A9CFD029018000000C1003FBFFFFFE02B5E8DC0F42A9CFD049018000000C1003FBFFFFFE02B5E8DC0F42A9CFD089018000000C1003FBFFFFFE02B5E8DC0F42A9CFD109018000000C1003FBFFFFFE02B5E8DC0F42A9CFD209018000000C
310
1003FBFFFFFE02B5E8DC0F42A9CFD02405075F4845414445526A
340
11
340
0
340
0
340
0
340
0
340
0
340
0
340
11
340
0
340
0
340
0
340
0
340
0
340
0
340
11
340
0
340
0
340
0
340
0
340
0
340
0
 94
        0
  0
XRECORD
  5
465
102
{ACAD_REACTORS
330
464
102
}
330
464
100
AcDbXrecord
280
     1
102
ACAD_ROUNDTRIP_PRE2007_TABLESTYLE
 90
      512
 91
        0
  1

 92
      512
 93
        0
  2

 94
      512
 95
        0
  3

  0
ENDSEC
  0
EOF
